<svg width="51" height="70" viewBox="0 0 51 70" fill="none" xmlns="http://www.w3.org/2000/svg">
<path fill-rule="evenodd" clip-rule="evenodd" d="M31.4592 16.7889C30.9072 17.6881 30.4048 18.6177 29.9128 19.5529C29.8744 19.4601 29.8352 19.3713 29.7968 19.2881C29.7448 19.1761 29.6648 18.9969 29.5672 18.8265C29.5664 18.7841 29.5624 18.7409 29.5544 18.6977C28.9712 15.4921 27.4136 13.0009 25.12 10.7073C24.3496 9.93765 23.4512 9.02085 22.4456 8.56165C20.9024 7.85605 18.9352 7.56405 17.2424 7.56405C16.8176 7.56405 16.4696 7.89605 16.444 8.31445C16.1144 8.95205 15.9736 9.71365 15.8624 10.3985C15.1088 15.0433 19.46 19.1105 23.7616 19.9705C25.2928 20.2769 26.7424 19.8297 28.2464 19.7609C28.2856 19.8385 28.3264 19.9217 28.3456 19.9617C28.476 20.2441 28.6288 20.6081 28.716 20.9801C28.7792 21.2465 28.8248 21.5177 28.7408 21.7417C28.7304 21.7697 28.7216 21.7985 28.7144 21.8273C28.4696 22.2793 28.2192 22.7289 27.9592 23.1721C27.9208 23.2297 27.8872 23.2865 27.8584 23.3433C27.6616 23.6753 27.4584 24.0033 27.2472 24.3265C25.0392 27.7097 22.8808 31.0553 20.8376 34.4409C20.592 34.1665 20.34 33.8521 20.144 33.5289C19.984 33.2649 19.8496 33.0025 19.8496 32.7529C19.8496 32.6665 19.836 32.5833 19.8104 32.5057C19.804 32.4729 19.796 32.4417 19.7856 32.4105C19.812 32.3321 19.8256 32.2473 19.8256 32.1601C19.8256 30.3297 19.796 28.3089 19.3296 26.4769C18.8288 24.5073 17.8352 22.7529 15.9288 21.6001C14.7432 20.8833 13.2088 20.3417 11.8256 20.2073C11.7064 20.1953 10.6728 20.2241 10.4416 20.2313C10.2288 20.1345 9.97679 20.1305 9.75199 20.2433C9.49519 20.3713 9.33759 20.6193 9.31279 20.8857C9.27359 21.0105 9.26399 21.1457 9.29119 21.2825C10.1432 25.5417 11.9432 28.2921 15.2648 31.1097C15.7648 31.5329 16.716 32.4657 17.6008 32.9913C17.8472 33.1377 18.0928 33.2537 18.328 33.3329C18.4152 33.6713 18.5704 34.0201 18.776 34.3577C19.116 34.9193 19.5888 35.4609 19.984 35.8713C18.2848 38.7457 16.6744 41.6585 15.1936 44.6561C15.032 44.2601 14.8744 43.8609 14.724 43.4601C14.6832 43.3513 14.624 43.0849 14.5448 42.8497C16.5584 40.4265 16.5 37.5945 15.3232 35.0281C14.16 32.4889 11.8696 30.2233 9.51199 28.9649C9.39279 28.8209 9.22399 28.7177 9.02639 28.6849C8.59039 28.6121 8.17839 28.9065 8.10559 29.3425L8.09679 29.3929C8.09519 29.4041 8.09279 29.4153 8.09119 29.4265C7.41279 33.5177 6.95919 37.7505 9.74959 41.2721C10.1728 41.8065 10.9048 42.5521 11.696 43.0649C12.1632 43.3673 12.6544 43.5857 13.124 43.6729C13.1632 43.8161 13.2056 43.9681 13.2264 44.0217C13.5496 44.8849 13.9056 45.7393 14.2664 46.5833C13.0504 49.1777 11.9352 51.8401 10.9464 54.6025C10.7176 55.2433 10.488 55.8753 10.2632 56.5017C10.0368 55.9233 9.78319 55.3521 9.57359 54.8009C9.70399 53.5953 9.91839 52.5233 10.0192 51.4913C10.1928 49.7033 10.048 48.0257 8.74879 46.0529C8.31999 45.4009 7.73599 44.8273 7.18639 44.2777C6.51679 43.6081 5.78879 42.9817 4.98719 42.4737C4.46959 42.1457 3.54959 41.3801 2.72879 40.9481C2.25199 40.6969 1.79119 40.5553 1.41599 40.5553C1.09919 40.5553 0.824791 40.7401 0.695191 41.0073C0.510391 41.1537 0.391992 41.3801 0.391992 41.6345C0.391992 42.4873 0.172791 43.3433 0.215191 44.2249C0.388791 47.8681 1.70559 51.1977 4.56319 53.5433C5.16479 54.0361 5.88399 54.3497 6.60479 54.6521C7.12879 54.8713 7.65519 55.0809 8.09839 55.4113C8.30959 55.9465 8.56159 56.4993 8.78159 57.0577C9.03519 57.7009 9.25199 58.3513 9.25199 58.9929C9.25199 59.0881 9.26799 59.1785 9.29839 59.2633C8.32559 62.1769 7.55439 65.0753 7.35199 68.3169C7.32399 68.7569 7.65919 69.1377 8.09999 69.1649C8.54079 69.1929 8.92079 68.8569 8.94879 68.4169C9.18799 64.5897 10.26 61.2601 11.4984 57.7913C12.1712 56.9561 12.8912 56.2129 13.7936 55.6593C13.9072 55.7553 14.0488 55.8193 14.2064 55.8393C20.0096 56.5705 26.0904 54.3153 29.3536 49.3033C29.5944 48.9329 29.4896 48.4369 29.1192 48.1961C29.024 48.1345 28.9208 48.0953 28.8152 48.0777C28.764 48.0545 28.7096 48.0361 28.6528 48.0233C23.1384 46.8241 16.66 48.7401 13.824 53.8369C13.8016 53.8449 13.78 53.8545 13.7584 53.8641C13.3824 54.0401 13.0312 54.2393 12.7 54.4601C13.7184 51.6921 14.864 49.0233 16.1128 46.4217C16.1552 46.3945 16.196 46.3625 16.2344 46.3257C17.2528 45.3497 18.5456 44.7393 19.8088 44.1241C19.8712 44.2073 19.9504 44.2801 20.0456 44.3353C24.1912 46.7737 29.5664 44.6009 32.62 41.4169C33.7056 40.2857 34.4808 38.7369 35.4528 37.4945C35.496 37.4393 35.5304 37.3809 35.5568 37.3193C35.6328 37.2473 35.6952 37.1585 35.7392 37.0569C35.9128 36.6505 35.7248 36.1801 35.3192 36.0065C30.9664 34.1409 24.7184 35.4737 21.6256 39.0305C21.1352 39.5945 20.368 40.4305 19.9032 41.3073C19.6944 41.7009 19.5464 42.1041 19.4816 42.5025C18.8536 42.8137 18.2144 43.1193 17.5936 43.4545C18.9408 40.8521 20.384 38.3073 21.8936 35.7881C23.2176 34.3745 24.7056 32.9081 26.3968 31.9449C26.6272 32.0753 26.9192 32.1745 27.0672 32.2489C28.332 32.8817 29.404 33.0121 30.808 33.1185C33.888 33.3505 37.056 33.2545 39.9392 32.0449C40.9008 31.6417 42.3024 31.0529 43.1256 30.2617C43.2432 30.2081 43.3496 30.1257 43.432 30.0145C43.6976 29.6617 43.6256 29.1593 43.272 28.8945C39.4272 26.0105 34.2768 26.0889 29.8952 27.8769C28.7936 28.3257 27.6984 28.8545 26.756 29.5873C26.5768 29.7265 26.2776 29.9273 26.0728 30.1473C25.9944 30.2313 25.9272 30.3185 25.8712 30.4073C25.5136 30.6001 25.1632 30.8137 24.8216 31.0433C26.0512 29.0985 27.3112 27.1561 28.5872 25.2009C28.7912 24.8881 28.988 24.5713 29.1784 24.2513C29.2224 24.1961 29.2584 24.1353 29.2872 24.0681L29.292 24.0601C29.3264 24.0281 29.4568 23.9081 29.5432 23.8465C29.7936 23.6665 30.0664 23.5049 30.2248 23.3817C31.1368 22.6777 31.9096 22.1105 33.0312 21.7777C33.1688 21.7369 33.3856 21.6889 33.6016 21.6681C33.6288 21.6649 33.6608 21.6641 33.6944 21.6633C33.7752 21.7065 33.8632 21.7361 33.9544 21.7497C34.0544 21.8329 34.1776 21.9073 34.3232 21.9641C34.5976 22.0705 35.0064 22.1241 35.164 22.1553C36.208 22.3641 37.2832 22.3161 38.3416 22.3161C41.212 22.3161 43.5696 21.6945 46.2176 20.6801C47.6152 20.1449 49.0736 19.6337 50.208 18.6249C50.5376 18.3321 50.5672 17.8257 50.2744 17.4961C50.1992 17.4113 50.1096 17.3465 50.0128 17.3017C45.4128 14.6809 40.5896 15.6657 36.1488 18.2137C35.644 18.5033 35.1808 18.9521 34.7312 19.3969C34.4864 19.6393 34.2488 19.8833 33.9984 20.0665C33.956 20.0633 33.9128 20.0609 33.868 20.0593C33.4224 20.0457 32.8776 20.1545 32.5768 20.2441C31.9888 20.4177 31.4792 20.6425 31.0008 20.9105C31.5784 19.8065 32.1592 18.7049 32.8104 17.6449C38.92 16.6377 43.9056 13.5497 45.7384 7.19925C46.2456 5.44085 46.0384 3.90565 46.1016 2.14885C46.1064 2.01845 46.0792 1.89445 46.028 1.78405C46.036 1.73765 46.0408 1.69045 46.04 1.64165C46.0384 1.20085 45.6784 0.843254 45.2368 0.844854C43.1448 0.853654 40.724 0.951254 38.4808 1.50005C36.1176 2.07765 33.9544 3.15685 32.4976 5.08565C31.504 6.40085 31.0144 8.03285 30.852 9.76165C30.628 12.1401 31.0248 14.7057 31.4592 16.7889ZM27.3056 49.4073C24.7288 52.6249 20.7256 54.2993 16.64 54.3721C18.708 53.7281 20.68 52.8577 22.6208 51.8209C22.8152 51.7161 22.8888 51.4737 22.7848 51.2793C22.6808 51.0841 22.4376 51.0113 22.2432 51.1153C20.1376 52.2409 17.9936 53.1665 15.7248 53.8097C18.2288 50.2217 22.996 48.8065 27.3056 49.4073ZM1.95039 42.3385C1.88879 42.9345 1.78399 43.5345 1.81279 44.1481C1.96479 47.3321 3.08079 50.2569 5.57839 52.3065C6.05999 52.7009 6.64559 52.9345 7.22319 53.1761C7.32879 53.2201 7.43359 53.2641 7.53759 53.3097C6.33359 50.8721 4.75039 48.5689 3.24399 46.3289C3.12079 46.1457 3.16959 45.8969 3.35279 45.7737C3.53599 45.6505 3.78479 45.6993 3.90799 45.8825C5.41999 48.1305 7.00559 50.4433 8.22079 52.8865C8.30159 52.3529 8.37759 51.8401 8.42639 51.3361C8.56719 49.8897 8.46399 48.5289 7.41279 46.9329C7.04239 46.3705 6.52959 45.8841 6.05519 45.4089C5.46799 44.8217 4.83279 44.2705 4.13039 43.8249C3.69999 43.5521 2.98399 42.9633 2.28639 42.5369C2.17119 42.4665 2.05839 42.3977 1.95039 42.3385ZM33.7344 37.1353C30.0552 36.0609 25.2912 37.2529 22.8336 40.0801C22.4712 40.4969 21.9264 41.0753 21.5216 41.7073C23.4384 40.8457 25.5416 40.3865 27.5744 39.8865C27.7888 39.8337 28.0056 39.9649 28.0584 40.1793C28.1112 40.3937 27.98 40.6105 27.7656 40.6633C25.4904 41.2233 23.1184 41.7177 21.0432 42.8321C21.0368 42.9113 21.0392 42.9897 21.052 43.0665C24.5344 44.9465 28.9264 42.9569 31.4648 40.3097C32.3384 39.3993 32.9968 38.2033 33.7344 37.1353ZM9.48959 30.8041C8.98239 34.1041 8.76639 37.4545 11.004 40.2785C11.344 40.7073 11.9296 41.3097 12.5656 41.7217C12.7032 41.8113 12.8424 41.8937 12.98 41.9593C12.6448 40.6649 12.5616 39.3097 12.1968 38.0201C11.8856 36.9209 11.2096 35.9673 10.684 34.9657C10.5816 34.7705 10.6568 34.5281 10.8528 34.4257C11.048 34.3233 11.2904 34.3985 11.3928 34.5945C11.9432 35.6441 12.6408 36.6497 12.9664 37.8025C13.296 38.9657 13.3944 40.1841 13.6576 41.3617C14.856 39.5705 14.716 37.5425 13.8688 35.6945C12.968 33.7289 11.2928 31.9529 9.48959 30.8041ZM41.4224 29.5833C38.1496 27.6657 34.0384 27.9145 30.4992 29.3577C29.972 29.5729 29.4456 29.8057 28.9408 30.0777C31.2984 29.5513 33.8296 29.3217 36.1648 29.4129C36.3856 29.4209 36.5576 29.6073 36.5488 29.8281C36.54 30.0481 36.3544 30.2209 36.1336 30.2121C33.5968 30.1129 30.8216 30.4041 28.3104 31.0513C29.1584 31.3777 29.9496 31.4489 30.928 31.5225C33.7576 31.7361 36.672 31.6809 39.3208 30.5697C39.9248 30.3161 40.7632 30.0049 41.4224 29.5833ZM18.1992 30.1929C18.1568 29.0745 18.0504 27.9385 17.7792 26.8713C17.38 25.3033 16.6184 23.8873 15.1008 22.9697C14.116 22.3737 12.8456 21.9185 11.6944 21.8017C11.664 21.8041 11.3776 21.8209 11.0528 21.8305C11.8936 25.2185 13.512 27.5249 16.3 29.8889C16.6256 30.1649 17.1536 30.6785 17.724 31.1281C16.8984 28.9529 15.3032 27.0745 13.8856 25.2833C13.748 25.1097 13.7776 24.8585 13.9512 24.7209C14.124 24.5841 14.376 24.6137 14.5128 24.7865C15.836 26.4593 17.2968 28.2137 18.1992 30.1929ZM48.1184 18.1449C44.3816 16.5553 40.5256 17.5473 36.9448 19.6017C36.7864 19.6929 36.6352 19.8065 36.488 19.9321C38.6472 19.5609 40.7984 18.8705 42.8488 18.2097C43.0592 18.1425 43.2848 18.2577 43.3528 18.4681C43.42 18.6785 43.3048 18.9041 43.0944 18.9713C41.0184 19.6409 38.84 20.3345 36.6528 20.7145C37.2152 20.7361 37.7808 20.7161 38.3416 20.7161C41.0048 20.7161 43.1888 20.1265 45.6456 19.1857C46.476 18.8681 47.34 18.5761 48.1184 18.1449ZM10.8064 20.5665L10.8248 20.6009C10.8192 20.5889 10.8128 20.5777 10.8064 20.5665ZM17.7976 9.17525C17.5848 9.63045 17.5192 10.1745 17.4416 10.6545C17.1392 12.5209 17.9016 14.2505 19.148 15.6081C20.4464 17.0225 22.2744 18.0417 24.076 18.4017C24.7888 18.5441 25.4808 18.4833 26.1704 18.3961C26.4448 18.3609 26.7184 18.3217 26.9928 18.2849C24.2072 17.0937 22.108 14.9777 20.128 12.6513C19.9848 12.4833 20.0048 12.2305 20.1736 12.0873C20.3416 11.9449 20.5944 11.9649 20.7368 12.1329C22.7224 14.4649 24.8176 16.5945 27.6752 17.7001C27.0064 15.4321 25.7256 13.5761 23.9888 11.8385C23.3456 11.1961 22.62 10.4001 21.7808 10.0169C20.6008 9.47765 19.1352 9.22805 17.7976 9.17525ZM44.4936 2.45205C42.7016 2.48005 40.7168 2.60005 38.8608 3.05365C36.8608 3.54325 35.0072 4.41685 33.7744 6.04965C32.956 7.13365 32.5784 8.48645 32.4448 9.91125C32.296 11.4961 32.4488 13.1689 32.6968 14.7041C33.316 12.8025 34.6192 11.1961 36.1424 9.71605C38.0792 7.83365 40.3704 6.15605 41.9336 4.28005C42.0752 4.11045 42.3272 4.08805 42.4968 4.22885C42.6664 4.37045 42.6896 4.62325 42.548 4.79285C40.9688 6.68725 38.6576 8.38725 36.7 10.2897C35.0152 11.9273 33.5896 13.7145 33.2104 15.9473C38.3928 14.9385 42.6232 12.2241 44.2008 6.75605C44.6344 5.25365 44.4736 3.92645 44.4936 2.45205Z" fill="#004042"/>
</svg>
