<svg width="113" height="26" viewBox="0 0 113 26" fill="none" xmlns="http://www.w3.org/2000/svg">
<path d="M0.816528 6.32441L1.90536 3.80982L6.68257 6.02918L5.53952 8.51657L0.838172 6.30817L0.816528 6.32441ZM11.2819 11.1657L12.387 8.67283C14.2957 9.54863 16.2098 10.3865 18.1238 11.2243L17.035 13.7389C15.0993 12.9173 13.169 12.0577 11.2603 11.1819L11.2819 11.1657ZM22.9069 16.1551L23.9035 13.6078C25.8445 14.3915 27.7909 15.1372 29.7425 15.8449L28.8217 18.4032C26.8321 17.6899 24.8695 16.9225 22.8906 16.1333L22.9069 16.1551ZM34.8608 20.4562L35.6731 17.8436C37.6571 18.4592 39.6464 19.0369 41.641 19.5766L40.9588 22.2274C38.9046 21.6984 36.861 21.0935 34.8608 20.4562ZM47.1807 23.6679L47.7112 20.9953C49.7435 21.4049 51.8244 21.7441 53.8184 22.0127L53.4559 24.729C51.386 24.4494 49.2672 24.1047 47.159 23.6842L47.1807 23.6679ZM59.8331 25.34L59.9843 22.6126C62.0377 22.7349 64.107 22.7433 66.1654 22.692L66.2634 25.4361C64.1238 25.5143 61.9623 25.4733 59.8494 25.3618L59.8331 25.34ZM72.6436 24.9246L72.291 22.2019C74.3382 21.9554 76.3796 21.6113 78.3776 21.1641L78.9684 23.8438C76.9109 24.3017 74.7719 24.6511 72.6436 24.9246ZM85.1619 22.1825L84.3112 19.5621C86.2979 18.9196 88.2194 18.1903 90.0377 17.3687L91.1753 19.8756C89.2541 20.7405 87.2298 21.513 85.1836 22.1662L85.1619 22.1825ZM96.8731 16.923L95.4813 14.5729C96.9799 13.6858 98.4133 12.7117 99.7762 11.6888L100.533 11.1205L102.223 13.2812L101.422 13.8819C99.9945 14.9536 98.4746 15.9926 96.8731 16.923ZM105.015 7.0436C106.421 5.58148 107.728 3.98907 108.884 2.37476L111.119 3.95599C109.888 5.69492 108.488 7.39022 106.991 8.95524L105.015 7.0436Z" fill="#004042"/>
<path d="M95.4025 3.15794L95.8363 5.85367L109.163 3.82845L110.249 17.3055L112.989 17.0817L111.638 0.681396L95.4025 3.15794Z" fill="#004042"/>
</svg>
