<svg width="113" height="26" viewBox="0 0 113 26" fill="none" xmlns="http://www.w3.org/2000/svg">
<path d="M0.814941 19.7352L1.90377 22.2498L6.68098 20.0304L5.53794 17.543L0.836585 19.7514L0.814941 19.7352ZM11.2803 14.8939L12.3854 17.3868C14.2941 16.511 16.2082 15.6731 18.1222 14.8353L17.0334 12.3207C15.0977 13.1423 13.1674 14.0019 11.2587 14.8777L11.2803 14.8939ZM22.9053 9.90455L23.9019 12.4518C25.8429 11.6681 27.7893 10.9224 29.7409 10.2147L28.8201 7.65645C26.8305 8.36969 24.8679 9.13711 22.889 9.92626L22.9053 9.90455ZM34.8592 5.60339L35.6715 8.21599C37.6555 7.60036 39.6448 7.02269 41.6394 6.48297L40.9572 3.83223C38.903 4.36119 36.8594 4.96606 34.8592 5.60339ZM47.1791 2.39169L47.7096 5.06434C49.7419 4.65471 51.8228 4.31551 53.8168 4.04693L53.4543 1.33065C51.3844 1.61019 49.2656 1.95487 47.1575 2.37545L47.1791 2.39169ZM59.8315 0.719564L59.9828 3.44699C62.0361 3.32473 64.1054 3.31633 66.1638 3.3676L66.2618 0.623555C64.1222 0.54529 61.9607 0.586355 59.8478 0.697847L59.8315 0.719564ZM72.642 1.13496L72.2894 3.85769C74.3366 4.1042 76.3781 4.44831 78.376 4.89553L78.9668 2.21584C76.9093 1.75787 74.7703 1.40847 72.642 1.13496ZM85.1603 3.87715L84.3096 6.49755C86.2963 7.14 88.2178 7.86931 90.0362 8.69095L91.1737 6.18401C89.2525 5.31914 87.2282 4.54659 85.182 3.89339L85.1603 3.87715ZM96.8715 9.13664L95.4797 11.4867C96.9783 12.3739 98.4117 13.3479 99.7746 14.3708L100.532 14.9391L102.221 12.7785L101.421 12.1777C99.9929 11.106 98.473 10.067 96.8715 9.13664ZM105.014 19.016C106.419 20.4781 107.727 22.0705 108.882 23.6849L111.118 22.1036C109.886 20.3647 108.487 18.6694 106.99 17.1044L105.014 19.016Z" fill="#004042"/>
<path d="M95.4009 22.9017L95.8347 20.2059L109.162 22.2312L110.247 8.75408L112.988 8.9779L111.636 25.3782L95.4009 22.9017Z" fill="#004042"/>
</svg>
