<svg width="50" height="74" viewBox="0 0 50 74" fill="none" xmlns="http://www.w3.org/2000/svg">
<path d="M46.84 69.8C46.6 69.64 46.28 69.48 45.96 69.32C45.64 69.16 45.24 68.76 44.84 68.36C44.12 67.64 43.24 66.84 42.12 66.44C41.32 66.2 40.44 66.28 39.64 66.36C38.92 66.44 38.28 66.52 37.72 66.44C37.24 66.36 36.76 66.04 36.2 65.72C36.2 65.24 36.44 57.32 42.92 54.44C43.24 54.28 43.48 53.88 43.4 53.56C43.32 53.16 43 52.92 42.6 52.92C42.52 52.92 38.04 53 34.04 55.4C34.36 53.08 34.36 49 31.96 45.96C31.8 45.72 31.4 45.64 31.16 45.72C30.84 45.8 30.6 46.04 30.6 46.36C30.6 46.44 29.32 53.88 25.8 57.56V54.6C25.88 45.96 29.64 36.2 33.32 34.92C34.52 34.52 35.72 35 37 36.36C36.2 37.48 34.52 40.36 36.12 43.56C38.04 47.32 43.88 49.88 44.12 50.04C44.2 50.12 44.36 50.12 44.44 50.12C44.6 50.12 44.68 50.12 44.76 50.04C45 49.96 45.16 49.72 45.16 49.48C45.24 49.24 46.6 43.08 44.76 39.24C43.16 36.04 39.8 35.64 38.44 35.56C36.2 32.84 34.12 32.84 32.76 33.32C29.8 34.36 27.32 38.84 25.72 44.12V26.84C27.64 29 30.52 31.4 30.68 31.56C30.84 31.72 31 31.72 31.16 31.72C31.24 31.72 31.4 31.72 31.48 31.64C31.72 31.56 31.96 31.24 31.96 31C31.96 30.76 32.36 25.88 31.96 23C32.92 23.16 34.04 23.16 35.16 23.16C37.56 23.16 39.8 23 39.96 22.92C40.28 22.92 40.52 22.68 40.6 22.44C40.68 22.2 40.68 21.88 40.44 21.64C40.28 21.48 37.16 17.8 34.76 15.96C37.16 14.12 40.28 10.44 40.44 10.28C40.6 10.04 40.68 9.71996 40.6 9.47996C40.52 9.23996 40.2 8.99996 39.96 8.99996C39.72 8.99996 34.84 8.59996 31.96 8.99996C32.36 6.03996 31.96 1.23996 31.96 0.999963C31.96 0.679963 31.72 0.439963 31.48 0.359963C31.24 0.279963 30.84 0.199963 30.6 0.359963C30.44 0.519963 26.76 3.63996 24.92 6.03996C23.08 3.63996 19.4 0.519963 19.24 0.359963C19 0.199963 18.68 0.119964 18.44 0.199964C18.2 0.279964 17.96 0.599964 17.96 0.839964C17.96 1.07996 17.56 5.95996 17.96 8.83996C15 8.43996 10.2 8.83996 9.96001 8.83996C9.64001 8.83996 9.40001 9.07996 9.32001 9.31996C9.24001 9.55996 9.24001 9.87996 9.48001 10.12C9.64001 10.28 12.76 13.96 15.16 15.8C12.76 17.64 9.64001 21.32 9.48001 21.48C9.32001 21.72 9.24001 22.04 9.32001 22.28C9.40001 22.52 9.72001 22.76 9.96001 22.76C10.12 22.76 12.2 22.92 14.44 22.92C15.64 22.92 16.92 22.84 17.96 22.68C17.56 25.64 17.96 30.44 17.96 30.68C17.96 31 18.2 31.24 18.44 31.32C18.52 31.32 18.68 31.4 18.76 31.4C18.92 31.4 19.16 31.32 19.24 31.24C19.4 31.08 22.12 28.76 24.04 26.6V44.2C22.52 38.92 19.96 34.44 17 33.4C15.64 32.92 13.56 32.92 11.32 35.64C9.96001 35.64 6.60001 36.12 5.00001 39.32C3.08001 43.08 4.52001 49.24 4.60001 49.56C4.68001 49.8 4.84001 49.96 5.00001 50.12C5.08001 50.2 5.24001 50.2 5.32001 50.2C5.40001 50.2 5.56001 50.2 5.64001 50.12C5.88001 50.04 11.72 47.4 13.64 43.64C15.24 40.44 13.56 37.48 12.76 36.44C14.04 35 15.24 34.52 16.44 35C20.36 36.2 24.12 45.96 24.2 54.6V57.72C20.68 54.04 19.4 46.6 19.4 46.52C19.32 46.2 19.08 45.96 18.84 45.88C18.52 45.8 18.2 45.88 18.04 46.12C15.64 49.16 15.72 53.24 15.96 55.56C11.96 53.08 7.48001 53 7.40001 53C7.00001 53 6.68001 53.24 6.60001 53.64C6.52001 54.04 6.68001 54.36 7.08001 54.52C13.56 57.4 13.8 65.32 13.8 65.8C13.24 66.12 12.76 66.44 12.28 66.52C11.64 66.68 11 66.52 10.36 66.44C9.56001 66.36 8.68001 66.2 7.88001 66.52C6.76001 66.92 5.88001 67.72 5.16001 68.44C4.76001 68.84 4.36001 69.16 4.04001 69.4C3.72001 69.56 3.48001 69.72 3.16001 69.88C1.64001 70.76 0.200012 71.56 0.200012 73.08C0.200012 73.56 0.520012 73.88 1.00001 73.88H49C49.48 73.88 49.8 73.56 49.8 73.08C49.8 71.48 48.36 70.68 46.84 69.8ZM43.4 40.04C44.6 42.44 44.2 46.36 43.88 48.2C42.2 47.32 38.84 45.4 37.64 42.92C36.36 40.36 37.8 38.04 38.44 37.24C39.32 37.24 42.12 37.56 43.4 40.04ZM12.44 42.92C11.24 45.4 7.80001 47.32 6.20001 48.2C5.88001 46.36 5.48001 42.52 6.68001 40.04C7.96001 37.48 10.76 37.24 11.72 37.24C12.2 38.04 13.64 40.44 12.44 42.92ZM34.68 65C34.36 64.84 34.04 64.76 33.64 64.68C32.76 64.6 31.96 64.84 31.16 65.08C30.68 65.24 30.28 65.32 29.88 65.4C30.52 58.36 35.64 55.96 39.24 55.08C35.56 58.28 34.76 63.08 34.68 65ZM31.72 48.76C33.24 52.28 32.2 56.76 32.2 56.84V56.92C30.2 58.76 28.6 61.32 28.2 65.24C27.96 65.16 27.72 65.08 27.48 64.92C26.68 64.6 25.88 64.2 24.92 64.2C24.04 64.2 23.32 64.52 22.6 64.84C23 61.4 25.24 60.2 25.32 60.12H25.4C29.16 57.64 31 51.8 31.72 48.76ZM22.6 18.52C22.52 18.44 22.52 18.44 22.52 18.44C22.52 18.44 22.52 18.36 22.44 18.36C22.12 18.04 21.88 17.72 21.72 17.32C21.56 16.92 21.48 16.52 21.48 16.04C21.48 16.04 21.48 16.04 21.48 15.96V15.88C21.48 15 21.8 14.2 22.44 13.56C22.44 13.56 22.44 13.56 22.44 13.48C22.44 13.48 22.44 13.48 22.52 13.4C22.52 13.4 22.6 13.4 22.6 13.32C22.92 13 23.24 12.76 23.64 12.6C24.04 12.44 24.44 12.36 24.92 12.36C24.92 12.36 24.92 12.36 25 12.36H25.08C25.96 12.36 26.76 12.68 27.4 13.32C27.4 13.32 27.4 13.4 27.48 13.4C27.48 13.4 27.48 13.48 27.56 13.48C27.88 13.8 28.12 14.12 28.28 14.52C28.44 14.92 28.52 15.32 28.52 15.8C28.52 15.8 28.52 15.8 28.52 15.88V15.96C28.52 16.84 28.2 17.64 27.56 18.28C27.56 18.28 27.56 18.36 27.48 18.36C27.48 18.36 27.4 18.36 27.4 18.44C27.08 18.76 26.76 19 26.36 19.16C25.96 19.32 25.56 19.4 25.08 19.4C25.08 19.4 25.08 19.4 25 19.4H24.92C24.04 19.48 23.24 19.16 22.6 18.52ZM30.6 29.24C28.92 27.72 26.44 25.4 25.8 24.04C25.8 23.96 25.8 23.96 25.72 23.88C25.64 23.64 25.56 23.32 25.48 23.08C25.48 23 25.48 22.92 25.4 22.84C25.4 22.68 25.32 22.44 25.32 22.28C25.32 22.2 25.32 22.12 25.32 21.96C25.32 21.8 25.32 21.64 25.4 21.48C25.4 21.4 25.4 21.32 25.48 21.24C25.48 21.16 25.56 21.16 25.56 21.08C26.04 21 26.6 20.92 27.08 20.68C27.56 20.44 28.04 20.2 28.44 19.88C28.44 19.88 28.44 19.88 28.52 19.88C28.68 19.96 28.84 20.04 29 20.2C29.16 20.36 29.32 20.44 29.48 20.6L29.56 20.68C29.72 20.84 29.8 21 29.96 21.16L30.04 21.24C30.12 21.4 30.28 21.64 30.36 21.88C30.36 21.88 30.36 21.96 30.44 21.96C30.44 21.96 30.44 21.96 30.44 22.04C30.68 23.64 30.68 27 30.6 29.24ZM38.28 21.4C36.2 21.48 33.16 21.56 31.56 21.24L31.48 21.16C31.4 20.92 31.32 20.76 31.16 20.6C31.16 20.52 31.08 20.52 31.08 20.44C30.92 20.2 30.76 20.04 30.6 19.8L30.52 19.72C30.36 19.56 30.2 19.4 30.04 19.24C29.96 19.16 29.96 19.16 29.88 19.08C29.72 18.92 29.48 18.76 29.32 18.6C29.56 18.12 29.8 17.64 29.88 17.16C30.12 17.24 30.36 17.24 30.6 17.24C30.68 17.24 30.76 17.24 30.76 17.24C30.84 17.24 30.92 17.24 31 17.24C31.16 17.24 31.32 17.24 31.48 17.24H31.56C31.8 17.24 32.04 17.16 32.36 17.08C32.44 17.08 32.52 17.08 32.52 17C32.76 16.92 32.92 16.84 33.16 16.84C33.24 16.84 33.24 16.84 33.32 16.84C34.76 17.72 36.92 19.88 38.28 21.4ZM38.28 10.44C36.76 12.12 34.44 14.6 33.08 15.24C33 15.24 33 15.32 32.92 15.32C32.68 15.4 32.36 15.48 32.12 15.56C32.04 15.56 31.96 15.56 31.88 15.64C31.72 15.64 31.48 15.72 31.32 15.72C31.24 15.72 31.16 15.72 31 15.72C30.84 15.72 30.68 15.72 30.52 15.64C30.44 15.64 30.36 15.64 30.28 15.56C30.2 15.56 30.2 15.48 30.12 15.48C30.04 15 29.96 14.44 29.72 13.96C29.48 13.48 29.24 13 28.92 12.6V12.52C29 12.36 29.08 12.2 29.24 12.04C29.4 11.88 29.48 11.72 29.64 11.56L29.72 11.48C29.88 11.32 30.04 11.24 30.2 11.08L30.28 11C30.44 10.92 30.68 10.76 30.92 10.68H31C31 10.68 31 10.68 31.08 10.68C32.6 10.28 35.96 10.28 38.28 10.44ZM30.44 2.67996C30.52 4.75996 30.6 7.79996 30.28 9.39996C30.28 9.39996 30.2 9.39996 30.2 9.47996C29.96 9.55996 29.8 9.71996 29.64 9.79996C29.56 9.79996 29.56 9.87996 29.48 9.87996C29.24 10.04 29.08 10.2 28.84 10.36L28.76 10.44C28.6 10.6 28.44 10.76 28.28 10.92C28.2 11 28.2 11 28.12 11.08C27.96 11.24 27.8 11.48 27.64 11.64C27.16 11.4 26.68 11.16 26.2 11.08C26.28 10.84 26.28 10.6 26.28 10.36C26.28 10.28 26.28 10.2 26.28 10.2C26.28 9.95996 26.28 9.79996 26.28 9.55996V9.47996C26.28 9.23996 26.2 8.99996 26.12 8.67996C26.12 8.59996 26.12 8.51996 26.04 8.51996C25.96 8.27996 25.88 8.11996 25.88 7.87996V7.79996C26.68 6.19996 28.92 4.11996 30.44 2.67996ZM19.4 2.67996C21.08 4.19996 23.56 6.51996 24.2 7.87996C24.2 7.95996 24.2 7.95996 24.28 8.03996C24.36 8.27996 24.44 8.59996 24.52 8.83996C24.52 8.91996 24.52 8.99996 24.6 9.07996C24.6 9.23996 24.68 9.47996 24.68 9.63996C24.68 9.71996 24.68 9.79996 24.68 9.95996C24.68 10.12 24.68 10.28 24.6 10.44C24.6 10.52 24.6 10.6 24.52 10.68C24.52 10.76 24.44 10.76 24.44 10.84C23.96 10.92 23.4 11 22.92 11.24C22.44 11.48 21.96 11.72 21.56 12.04C21.56 12.04 21.56 12.04 21.48 12.04C21.32 11.96 21.16 11.88 21 11.72C20.84 11.56 20.68 11.48 20.52 11.32L20.44 11.24C20.28 11.08 20.2 10.92 20.04 10.76C20.04 10.76 20.04 10.68 19.96 10.68C19.88 10.52 19.72 10.28 19.64 10.04C19.64 10.04 19.64 9.95996 19.56 9.95996C19.56 9.95996 19.56 9.95996 19.56 9.87996C19.32 8.35996 19.32 4.99996 19.4 2.67996ZM11.72 10.52C13.8 10.44 16.84 10.36 18.44 10.68L18.52 10.76C18.6 11 18.68 11.16 18.84 11.32C18.84 11.4 18.92 11.4 18.92 11.48C19.08 11.72 19.24 11.88 19.4 12.12L19.48 12.2C19.64 12.36 19.8 12.52 19.96 12.68C20.04 12.76 20.04 12.76 20.12 12.84C20.28 13 20.52 13.16 20.68 13.24C20.44 13.72 20.2 14.2 20.12 14.68C19.88 14.6 19.64 14.6 19.4 14.6C19.32 14.6 19.32 14.6 19.24 14.6C19 14.6 18.76 14.6 18.52 14.6H18.44C18.2 14.6 17.88 14.68 17.64 14.76C17.56 14.76 17.56 14.76 17.48 14.84C17.24 14.92 17.08 15 16.84 15.08H16.76C15.24 14.28 13.08 12.12 11.72 10.52ZM11.72 21.56C13.24 19.88 15.56 17.4 16.92 16.76C17 16.76 17 16.68 17.08 16.68C17.32 16.6 17.64 16.52 17.88 16.44C17.96 16.44 18.04 16.44 18.12 16.36C18.28 16.36 18.44 16.28 18.68 16.28C18.76 16.28 18.84 16.28 19 16.28C19.16 16.28 19.32 16.28 19.48 16.36C19.56 16.36 19.64 16.36 19.72 16.44C19.8 16.44 19.8 16.52 19.88 16.52C19.96 17 20.04 17.56 20.28 18.04C20.52 18.52 20.76 19 21.08 19.4C21.08 19.4 21.08 19.4 21.08 19.48C21 19.64 20.92 19.8 20.76 19.96C20.6 20.12 20.52 20.28 20.36 20.44L20.28 20.52C20.12 20.68 19.96 20.76 19.8 20.92C19.8 20.92 19.72 20.92 19.72 21C19.56 21.08 19.32 21.24 19.08 21.32H19C19 21.32 19 21.32 18.92 21.32C17.4 21.72 14.04 21.64 11.72 21.56ZM19.56 29.32C19.4 27.16 19.4 24.12 19.72 22.6L19.8 22.52C20.04 22.44 20.2 22.36 20.36 22.2C20.44 22.2 20.44 22.12 20.52 22.12C20.76 21.96 20.92 21.8 21.16 21.64L21.24 21.56C21.4 21.4 21.56 21.24 21.72 21.08C21.8 21 21.8 21 21.88 20.92C22.04 20.76 22.2 20.52 22.28 20.36C22.76 20.6 23.24 20.84 23.72 20.92C23.64 21.16 23.64 21.4 23.64 21.64C23.64 21.72 23.64 21.8 23.64 21.88C23.64 22.12 23.64 22.28 23.64 22.52C23.64 22.6 23.64 22.6 23.64 22.68C23.64 22.92 23.72 23.16 23.8 23.48C23.8 23.56 23.8 23.64 23.88 23.64C23.96 23.88 24.04 24.04 24.12 24.28V24.36C23.32 25.72 21.08 27.88 19.56 29.32ZM17.8 56.84C17.8 56.76 16.68 52.36 18.28 48.76C19 51.56 20.6 56.68 23.72 59.4C23 60.04 21.96 61.24 21.4 63.08C20.76 60.36 19.4 58.36 17.8 56.92C17.8 56.84 17.8 56.84 17.8 56.84ZM10.84 55.08C14.36 55.96 19.48 58.36 20.2 65.4C19.8 65.32 19.4 65.24 18.92 65.08C18.12 64.84 17.32 64.6 16.44 64.68C16.04 64.76 15.72 64.84 15.4 64.92C15.24 63.08 14.44 58.28 10.84 55.08ZM2.36001 72.2C2.76001 71.88 3.40001 71.56 3.96001 71.16C4.28001 71 4.52001 70.84 4.84001 70.68C5.32001 70.36 5.80001 69.96 6.20001 69.48C6.84001 68.84 7.48001 68.2 8.28001 67.96C8.76001 67.8 9.40001 67.88 10.04 67.96C10.76 68.04 11.64 68.2 12.52 67.96C13.24 67.8 13.96 67.4 14.6 67C15.24 66.6 15.88 66.2 16.52 66.12C17.08 66.04 17.64 66.28 18.36 66.44C19.16 66.68 19.96 66.92 20.76 66.84C21.56 66.76 22.28 66.44 23 66.2C23.72 65.88 24.36 65.64 24.92 65.64C25.48 65.64 26.12 65.88 26.84 66.2C27.56 66.52 28.28 66.84 29.08 66.84C29.96 66.92 30.76 66.68 31.48 66.44C32.12 66.2 32.76 66.04 33.32 66.12C33.96 66.2 34.6 66.6 35.24 67C35.88 67.4 36.6 67.8 37.32 67.96C38.2 68.12 39 68.04 39.8 67.96C40.44 67.88 41.16 67.8 41.56 67.96C42.36 68.2 43 68.84 43.64 69.48C44.12 69.96 44.52 70.36 45 70.68C45.32 70.84 45.56 71 45.88 71.16C46.52 71.48 47.08 71.8 47.48 72.2H2.36001Z" fill="#004042"/>
</svg>
