<svg width="74" height="74" viewBox="0 0 74 74" fill="none" xmlns="http://www.w3.org/2000/svg">
<path d="M73.0001 46.6H71.4001C71.0801 20.92 55.8001 0.199951 37.0001 0.199951C18.2001 0.199951 2.92007 20.92 2.60007 46.6H1.00007C0.520073 46.6 0.200073 46.92 0.200073 47.4V52.2C0.200073 52.68 0.520073 53 1.00007 53H2.60007V55.4C2.60007 65.56 10.8401 73.8 21.0001 73.8H53.0001C63.1601 73.8 71.4001 65.56 71.4001 55.4V53H73.0001C73.4801 53 73.8001 52.68 73.8001 52.2V47.4C73.8001 46.92 73.4801 46.6 73.0001 46.6ZM37.0001 1.79995C54.9201 1.79995 69.4801 21.8 69.8001 46.6H50.6001V42.84C51.4001 43.16 52.4401 43.48 53.6401 43.48C54.5201 43.48 55.4801 43.32 56.4401 42.84C59.8001 41.16 62.3601 36.2 62.5201 36.04C62.6001 35.8 62.6801 35.56 62.5201 35.32C62.3601 35.08 62.2001 34.92 61.9601 34.92C61.7201 34.92 56.2801 33.96 53.0001 35.64C51.9601 36.12 51.2401 36.84 50.6801 37.56V35.24C51.9601 34.68 52.7601 32.92 53.0801 31.16C54.2001 31.96 55.5601 32.52 56.6801 32.52C57.3201 32.52 57.8801 32.36 58.3601 31.88C59.5601 30.68 58.8401 28.36 57.6401 26.6C59.7201 26.2 61.8801 25.08 61.8801 23.4C61.8801 21.72 59.7201 20.6 57.6401 20.2C58.8401 18.44 59.5601 16.12 58.3601 14.92C57.1601 13.72 54.8401 14.44 53.0801 15.64C52.6801 13.56 51.5601 11.4 49.8801 11.4C48.2001 11.4 47.0801 13.56 46.6801 15.64C44.9201 14.44 42.6001 13.72 41.4001 14.92C40.2001 16.12 40.9201 18.44 42.1201 20.2C40.0401 20.6 37.8801 21.72 37.8801 23.4C37.8801 25.08 40.0401 26.2 42.1201 26.6C40.9201 28.36 40.2001 30.68 41.4001 31.88C41.8001 32.28 42.4401 32.52 43.0801 32.52C44.2001 32.52 45.5601 31.96 46.6801 31.16C47.0001 32.92 47.8001 34.68 49.0801 35.24V37.56C48.5201 36.84 47.8001 36.12 46.7601 35.64C43.4001 33.96 37.9601 34.84 37.8001 34.92C37.5601 35 37.3201 35.16 37.2401 35.32C37.1601 35.48 37.1601 35.8 37.2401 36.04C37.3201 36.28 39.9601 41.16 43.3201 42.84C44.2801 43.32 45.2401 43.48 46.1201 43.48C47.3201 43.48 48.3601 43.16 49.1601 42.84V46.6H25.0001V42.84C25.8001 43.16 26.8401 43.48 28.0401 43.48C28.9201 43.48 29.8801 43.32 30.8401 42.84C34.2001 41.16 36.7601 36.2 36.9201 36.04C37.0001 35.8 37.0801 35.56 36.9201 35.32C36.7601 35.08 36.6001 34.92 36.3601 34.92C36.1201 34.92 30.6801 33.96 27.4001 35.64C26.3601 36.12 25.6401 36.84 25.0801 37.56V35.24C26.3601 34.68 27.1601 32.92 27.4801 31.16C28.6001 31.96 29.9601 32.52 31.0801 32.52C31.7201 32.52 32.2801 32.36 32.7601 31.88C33.9601 30.68 33.2401 28.36 32.0401 26.6C34.1201 26.2 36.2801 25.08 36.2801 23.4C36.2801 21.72 34.1201 20.6 32.0401 20.2C33.2401 18.44 33.9601 16.12 32.7601 14.92C31.5601 13.72 29.2401 14.44 27.4801 15.64C27.0801 13.56 25.9601 11.4 24.2801 11.4C22.6001 11.4 21.4801 13.56 21.0801 15.64C19.3201 14.44 17.0001 13.72 15.8001 14.92C14.6001 16.12 15.3201 18.44 16.5201 20.2C14.4401 20.6 12.2801 21.72 12.2801 23.4C12.2801 25.08 14.4401 26.2 16.5201 26.6C15.3201 28.36 14.6001 30.68 15.8001 31.88C16.2001 32.28 16.8401 32.52 17.4801 32.52C18.6001 32.52 19.9601 31.96 21.0801 31.16C21.4001 32.92 22.2001 34.68 23.4801 35.24V37.56C22.9201 36.84 22.2001 36.12 21.1601 35.64C17.8001 33.96 12.3601 34.84 12.2001 34.92C11.9601 35 11.7201 35.16 11.6401 35.32C11.5601 35.48 11.5601 35.8 11.6401 36.04C11.7201 36.28 14.3601 41.16 17.7201 42.84C18.6801 43.32 19.6401 43.48 20.5201 43.48C21.7201 43.48 22.7601 43.16 23.5601 42.84V46.6H4.20007C4.52007 21.8 19.0801 1.79995 37.0001 1.79995ZM46.8401 27.08C46.8401 27.16 46.7601 27.16 46.7601 27.24C46.6801 27.32 46.6801 27.48 46.6001 27.64C46.6001 27.72 46.5201 27.8 46.5201 27.88C46.5201 28.04 46.4401 28.12 46.4401 28.28C46.4401 28.36 46.4401 28.44 46.4401 28.52C46.4401 28.68 46.4401 28.84 46.3601 29.08C46.3601 29.16 46.3601 29.16 46.3601 29.24C44.7601 30.6 42.8401 31.16 42.3601 30.68C41.9601 30.28 42.4401 28.28 43.8001 26.68C43.8801 26.68 43.9601 26.68 43.9601 26.68C44.1201 26.68 44.3601 26.68 44.5201 26.6C44.6001 26.6 44.6801 26.6 44.7601 26.6C44.9201 26.6 45.0801 26.52 45.1601 26.52C45.2401 26.52 45.3201 26.52 45.4001 26.44C45.5601 26.36 45.6401 26.36 45.8001 26.28C45.8801 26.28 45.8801 26.2 45.9601 26.2C46.1201 26.12 46.2801 26.04 46.4401 25.96C46.6001 26.2 46.7601 26.36 47.0001 26.52C47.0001 26.84 46.9201 26.92 46.8401 27.08ZM46.4401 17.48C46.4401 17.56 46.4401 17.64 46.4401 17.64C46.4401 17.8 46.4401 18.04 46.5201 18.2C46.5201 18.28 46.5201 18.36 46.5201 18.44C46.5201 18.6 46.6001 18.76 46.6001 18.84C46.6001 18.92 46.6001 19 46.6801 19.08C46.7601 19.24 46.7601 19.32 46.8401 19.48C46.8401 19.56 46.9201 19.56 46.9201 19.64C47.0001 19.8 47.0801 19.96 47.1601 20.12C46.9201 20.28 46.7601 20.44 46.6001 20.68C46.4401 20.6 46.2801 20.52 46.1201 20.44C46.0401 20.44 46.0401 20.36 45.9601 20.36C45.8801 20.28 45.7201 20.28 45.5601 20.2C45.4801 20.2 45.4001 20.12 45.3201 20.12C45.1601 20.12 45.0801 20.04 44.9201 20.04C44.8401 20.04 44.7601 20.04 44.6801 20.04C44.5201 20.04 44.3601 20.04 44.1201 19.96C44.0401 19.96 44.0401 19.96 43.9601 19.96C42.6001 18.36 42.0401 16.44 42.5201 15.96C42.9201 15.64 44.8401 16.12 46.4401 17.48ZM52.7601 19.72C52.7601 19.64 52.8401 19.64 52.8401 19.56C52.9201 19.48 52.9201 19.32 53.0001 19.16C53.0001 19.08 53.0801 19 53.0801 18.92C53.0801 18.76 53.1601 18.68 53.1601 18.52C53.1601 18.44 53.1601 18.36 53.1601 18.28C53.1601 18.12 53.1601 17.96 53.2401 17.72C53.2401 17.64 53.2401 17.64 53.2401 17.56C54.8401 16.2 56.7601 15.64 57.2401 16.12C57.6401 16.52 57.1601 18.52 55.8001 20.12C55.7201 20.12 55.6401 20.12 55.6401 20.12C55.4801 20.12 55.2401 20.12 55.0801 20.2C55.0001 20.2 54.9201 20.2 54.8401 20.2C54.6801 20.2 54.5201 20.28 54.4401 20.28C54.3601 20.28 54.2801 20.28 54.2001 20.36C54.0401 20.44 53.9601 20.44 53.8001 20.52C53.7201 20.52 53.7201 20.6 53.6401 20.6C53.4801 20.68 53.3201 20.76 53.1601 20.84C53.0001 20.6 52.8401 20.44 52.6001 20.28C52.6001 19.96 52.6801 19.88 52.7601 19.72ZM53.1601 29.32C53.1601 29.24 53.1601 29.16 53.1601 29.16C53.1601 29 53.1601 28.76 53.0801 28.6C53.0801 28.52 53.0801 28.44 53.0801 28.36C53.0801 28.2 53.0001 28.04 53.0001 27.96C53.0001 27.88 53.0001 27.8 52.9201 27.72C52.8401 27.56 52.8401 27.48 52.7601 27.32C52.7601 27.24 52.6801 27.24 52.6801 27.16C52.6001 27 52.5201 26.84 52.4401 26.68C52.6801 26.52 52.8401 26.36 53.0001 26.12C53.1601 26.2 53.3201 26.28 53.4801 26.36C53.5601 26.36 53.5601 26.44 53.6401 26.44C53.7201 26.52 53.8801 26.52 54.0401 26.6C54.1201 26.6 54.2001 26.68 54.2801 26.68C54.4401 26.68 54.5201 26.76 54.6801 26.76C54.7601 26.76 54.8401 26.76 54.9201 26.76C55.0801 26.76 55.2401 26.76 55.4801 26.84C55.5601 26.84 55.5601 26.84 55.6401 26.84C57.0001 28.44 57.5601 30.36 57.0801 30.84C56.7601 31.16 54.7601 30.68 53.1601 29.32ZM50.9201 25.8C50.8401 25.88 50.7601 25.88 50.6801 25.88C50.1201 26.04 49.5601 26.04 48.9201 25.88C48.8401 25.88 48.7601 25.8 48.6801 25.8C48.1201 25.56 47.7201 25.16 47.4801 24.6C47.4001 24.52 47.4001 24.44 47.4001 24.36C47.3201 24.04 47.2401 23.8 47.2401 23.48C47.2401 23.16 47.3201 22.92 47.4001 22.6C47.4001 22.52 47.4801 22.44 47.4801 22.36C47.7201 21.8 48.1201 21.4 48.6801 21.16C48.7601 21.08 48.8401 21.08 48.9201 21.08C49.4801 20.92 50.0401 20.92 50.6801 21.08C50.7601 21.08 50.8401 21.16 50.9201 21.16C51.4801 21.4 51.8801 21.8 52.1201 22.36C52.2001 22.44 52.2001 22.52 52.2001 22.6C52.2801 22.92 52.3601 23.16 52.3601 23.48C52.3601 23.8 52.2801 24.04 52.2001 24.36C52.2001 24.44 52.1201 24.52 52.1201 24.6C51.8801 25.08 51.4801 25.48 50.9201 25.8ZM56.0401 25.16H55.9601H55.8801C55.6401 25.16 55.4001 25.16 55.1601 25.08C55.0801 25.08 55.0001 25.08 55.0001 25.08C54.8401 25.08 54.6801 25 54.6001 25C54.5201 25 54.4401 25 54.4401 24.92C54.2801 24.84 54.2001 24.84 54.1201 24.76L54.0401 24.68C54.2001 24.28 54.2801 23.8 54.2801 23.4C54.2801 23 54.2001 22.52 54.0401 22.12L54.1201 22.04C54.2001 21.96 54.3601 21.96 54.4401 21.88C54.5201 21.88 54.5201 21.8 54.6001 21.8C54.7601 21.8 54.8401 21.72 55.0001 21.72C55.0801 21.72 55.1601 21.72 55.1601 21.72C55.4001 21.72 55.6401 21.64 55.8801 21.64H55.9601H56.0401C58.2801 21.72 60.2001 22.76 60.2001 23.4C60.2001 24.04 58.2801 25.16 56.0401 25.16ZM51.5601 17.4C51.5601 17.64 51.5601 17.88 51.4801 18.12C51.4801 18.2 51.4801 18.28 51.4801 18.28C51.4801 18.44 51.4001 18.6 51.4001 18.68C51.4001 18.76 51.4001 18.84 51.3201 18.84C51.2401 19 51.2401 19.08 51.1601 19.16L51.0801 19.24C50.6801 19.08 50.2001 19 49.8001 19C49.4001 19 48.9201 19.08 48.5201 19.24L48.4401 19.16C48.3601 19.08 48.3601 18.92 48.2801 18.84C48.2801 18.76 48.2001 18.76 48.2001 18.68C48.2001 18.52 48.1201 18.44 48.1201 18.28C48.1201 18.2 48.1201 18.12 48.1201 18.12C48.1201 17.88 48.0401 17.64 48.0401 17.4V17.32V17.24C48.1201 15 49.1601 13.08 49.8001 13.08C50.4401 13.08 51.5601 15 51.5601 17.24V17.32C51.5601 17.32 51.5601 17.32 51.5601 17.4ZM43.5601 21.64H43.6401H43.7201C43.9601 21.64 44.2001 21.64 44.4401 21.72C44.5201 21.72 44.6001 21.72 44.6001 21.72C44.7601 21.72 44.9201 21.8 45.0001 21.8C45.0801 21.8 45.1601 21.8 45.1601 21.88C45.3201 21.96 45.4001 21.96 45.4801 22.04C45.4801 22.04 45.5601 22.12 45.6401 22.12C45.4801 22.52 45.4001 23 45.4001 23.4C45.4001 23.8 45.4801 24.28 45.6401 24.68C45.6401 24.68 45.5601 24.76 45.4801 24.76C45.4001 24.84 45.2401 24.84 45.1601 24.92C45.0801 24.92 45.0001 25 45.0001 25C44.8401 25 44.7601 25.08 44.6001 25.08C44.5201 25.08 44.4401 25.08 44.4401 25.08C44.2001 25.08 43.9601 25.16 43.7201 25.16H43.6401H43.5601C41.3201 25.16 39.4001 24.04 39.4001 23.4C39.4001 22.76 41.3201 21.64 43.5601 21.64ZM48.0401 29.4C48.0401 29.16 48.0401 28.92 48.1201 28.68C48.1201 28.6 48.1201 28.52 48.1201 28.52C48.1201 28.36 48.2001 28.2 48.2001 28.12C48.2001 28.04 48.2001 27.96 48.2801 27.96C48.3601 27.8 48.3601 27.72 48.4401 27.64C48.4401 27.64 48.5201 27.56 48.5201 27.48C49.4001 27.72 50.2801 27.72 51.0801 27.48L51.1601 27.56C51.2401 27.64 51.2401 27.8 51.3201 27.88C51.3201 27.96 51.4001 27.96 51.4001 28.04C51.4001 28.2 51.4801 28.28 51.4801 28.44C51.4801 28.52 51.4801 28.6 51.4801 28.6C51.4801 28.84 51.5601 29.08 51.5601 29.32V29.4V29.48C51.5601 31.88 50.4401 33.8 49.8001 33.8C49.1601 33.8 48.0401 31.88 48.0401 29.64V29.56C48.0401 29.48 48.0401 29.48 48.0401 29.4ZM55.7201 41.4C53.6401 42.44 51.5601 41.56 50.6801 41.16C50.9201 40.2 51.6401 38.12 53.6401 37.08C55.6401 36.04 58.7601 36.2 60.4401 36.36C59.5601 37.8 57.8001 40.36 55.7201 41.4ZM48.9201 41.16C48.0401 41.64 45.9601 42.44 43.8801 41.4C41.8801 40.36 40.0401 37.72 39.0801 36.28C40.7601 36.12 43.8801 36.04 45.8801 37C47.9601 38.12 48.6801 40.2 48.9201 41.16ZM21.2401 27.08C21.2401 27.16 21.1601 27.16 21.1601 27.24C21.0801 27.32 21.0801 27.48 21.0001 27.64C21.0001 27.72 20.9201 27.8 20.9201 27.88C20.9201 28.04 20.8401 28.12 20.8401 28.28C20.8401 28.36 20.8401 28.44 20.8401 28.52C20.8401 28.68 20.8401 28.84 20.7601 29.08C20.7601 29.16 20.7601 29.16 20.7601 29.24C19.1601 30.6 17.2401 31.16 16.7601 30.68C16.3601 30.28 16.8401 28.28 18.2001 26.68C18.2801 26.68 18.3601 26.68 18.3601 26.68C18.5201 26.68 18.7601 26.68 18.9201 26.6C19.0001 26.6 19.0801 26.6 19.1601 26.6C19.3201 26.6 19.4801 26.52 19.5601 26.52C19.6401 26.52 19.7201 26.52 19.8001 26.44C19.9601 26.36 20.0401 26.36 20.2001 26.28C20.2801 26.28 20.2801 26.2 20.3601 26.2C20.5201 26.12 20.6801 26.04 20.8401 25.96C21.0001 26.2 21.1601 26.36 21.4001 26.52C21.4001 26.84 21.3201 26.92 21.2401 27.08ZM20.8401 17.48C20.8401 17.56 20.8401 17.64 20.8401 17.64C20.8401 17.8 20.8401 18.04 20.9201 18.2C20.9201 18.28 20.9201 18.36 20.9201 18.44C20.9201 18.6 21.0001 18.76 21.0001 18.84C21.0001 18.92 21.0001 19 21.0801 19.08C21.1601 19.24 21.1601 19.32 21.2401 19.48C21.2401 19.56 21.3201 19.56 21.3201 19.64C21.4001 19.8 21.4801 19.96 21.5601 20.12C21.3201 20.28 21.1601 20.44 21.0001 20.68C20.8401 20.6 20.6801 20.52 20.5201 20.44C20.4401 20.44 20.4401 20.36 20.3601 20.36C20.2801 20.28 20.1201 20.28 19.9601 20.2C19.8801 20.2 19.8001 20.12 19.7201 20.12C19.5601 20.12 19.4801 20.04 19.3201 20.04C19.2401 20.04 19.1601 20.04 19.0801 20.04C18.9201 20.04 18.7601 20.04 18.5201 19.96C18.4401 19.96 18.4401 19.96 18.3601 19.96C17.0001 18.36 16.4401 16.44 16.9201 15.96C17.3201 15.64 19.2401 16.12 20.8401 17.48ZM27.1601 19.72C27.1601 19.64 27.2401 19.64 27.2401 19.56C27.3201 19.48 27.3201 19.32 27.4001 19.16C27.4001 19.08 27.4801 19 27.4801 18.92C27.4801 18.76 27.5601 18.68 27.5601 18.52C27.5601 18.44 27.5601 18.36 27.5601 18.28C27.5601 18.12 27.5601 17.96 27.6401 17.72C27.6401 17.64 27.6401 17.64 27.6401 17.56C29.2401 16.2 31.1601 15.64 31.6401 16.12C32.0401 16.52 31.5601 18.52 30.2001 20.12C30.1201 20.12 30.0401 20.12 30.0401 20.12C29.8801 20.12 29.6401 20.12 29.4801 20.2C29.4001 20.2 29.3201 20.2 29.2401 20.2C29.0801 20.2 28.9201 20.28 28.8401 20.28C28.7601 20.28 28.6801 20.28 28.6001 20.36C28.4401 20.44 28.3601 20.44 28.2001 20.52C28.1201 20.52 28.1201 20.6 28.0401 20.6C27.8801 20.68 27.7201 20.76 27.5601 20.84C27.4001 20.6 27.2401 20.44 27.0001 20.28C27.0001 19.96 27.0801 19.88 27.1601 19.72ZM27.5601 29.32C27.5601 29.24 27.5601 29.16 27.5601 29.16C27.5601 29 27.5601 28.76 27.4801 28.6C27.4801 28.52 27.4801 28.44 27.4801 28.36C27.4801 28.2 27.4001 28.04 27.4001 27.96C27.4001 27.88 27.4001 27.8 27.3201 27.72C27.2401 27.56 27.2401 27.48 27.1601 27.32C27.1601 27.24 27.0801 27.24 27.0801 27.16C27.0001 27 26.9201 26.84 26.8401 26.68C27.0801 26.52 27.2401 26.36 27.4001 26.12C27.5601 26.2 27.7201 26.28 27.8801 26.36C27.9601 26.36 27.9601 26.44 28.0401 26.44C28.1201 26.52 28.2801 26.52 28.4401 26.6C28.5201 26.6 28.6001 26.68 28.6801 26.68C28.8401 26.68 28.9201 26.76 29.0801 26.76C29.1601 26.76 29.2401 26.76 29.3201 26.76C29.4801 26.76 29.6401 26.76 29.8801 26.84C29.9601 26.84 29.9601 26.84 30.0401 26.84C31.4001 28.44 31.9601 30.36 31.4801 30.84C31.0801 31.16 29.1601 30.68 27.5601 29.32ZM25.3201 25.8C25.2401 25.88 25.1601 25.88 25.0801 25.88C24.5201 26.04 23.9601 26.04 23.3201 25.88C23.2401 25.88 23.1601 25.8 23.0801 25.8C22.5201 25.56 22.1201 25.16 21.8801 24.6C21.8001 24.52 21.8001 24.44 21.8001 24.36C21.7201 24.04 21.6401 23.8 21.6401 23.48C21.6401 23.16 21.7201 22.92 21.8001 22.6C21.8001 22.52 21.8801 22.44 21.8801 22.36C22.1201 21.8 22.5201 21.4 23.0801 21.16C23.1601 21.08 23.2401 21.08 23.3201 21.08C23.8801 20.92 24.4401 20.92 25.0801 21.08C25.1601 21.08 25.2401 21.16 25.3201 21.16C25.8801 21.4 26.2801 21.8 26.5201 22.36C26.6001 22.44 26.6001 22.52 26.6001 22.6C26.6801 22.92 26.7601 23.16 26.7601 23.48C26.7601 23.8 26.6801 24.04 26.6001 24.36C26.6001 24.44 26.5201 24.52 26.5201 24.6C26.2801 25.08 25.8801 25.48 25.3201 25.8ZM30.4401 25.16H30.3601H30.2801C30.0401 25.16 29.8001 25.16 29.5601 25.08C29.4801 25.08 29.4001 25.08 29.4001 25.08C29.2401 25.08 29.0801 25 29.0001 25C28.9201 25 28.8401 25 28.8401 24.92C28.6801 24.84 28.6001 24.84 28.5201 24.76L28.4401 24.68C28.6001 24.28 28.6801 23.8 28.6801 23.4C28.6801 23 28.6001 22.52 28.4401 22.12L28.5201 22.04C28.6001 21.96 28.7601 21.96 28.8401 21.88C28.9201 21.88 28.9201 21.8 29.0001 21.8C29.1601 21.8 29.2401 21.72 29.4001 21.72C29.4801 21.72 29.5601 21.72 29.5601 21.72C29.8001 21.72 30.0401 21.64 30.2801 21.64H30.3601H30.4401C32.6801 21.72 34.6001 22.76 34.6001 23.4C34.6001 24.04 32.6801 25.16 30.4401 25.16ZM25.9601 17.4C25.9601 17.64 25.9601 17.88 25.8801 18.12C25.8801 18.2 25.8801 18.28 25.8801 18.28C25.8801 18.44 25.8001 18.6 25.8001 18.68C25.8001 18.76 25.8001 18.84 25.7201 18.84C25.6401 19 25.6401 19.08 25.5601 19.16L25.4801 19.24C25.0801 19.08 24.6001 19 24.2001 19C23.8001 19 23.3201 19.08 22.9201 19.24L22.8401 19.16C22.7601 19.08 22.7601 18.92 22.6801 18.84C22.6801 18.76 22.6001 18.76 22.6001 18.68C22.6001 18.52 22.5201 18.44 22.5201 18.28C22.5201 18.2 22.5201 18.12 22.5201 18.12C22.5201 17.88 22.4401 17.64 22.4401 17.4V17.32V17.24C22.5201 15 23.5601 13.08 24.2001 13.08C24.8401 13.08 25.9601 15 25.9601 17.24V17.32C25.9601 17.32 25.9601 17.32 25.9601 17.4ZM17.9601 21.64H18.0401H18.1201H18.2001C18.3601 21.64 18.6001 21.64 18.7601 21.64C18.8401 21.64 18.9201 21.64 19.0801 21.72C19.1601 21.72 19.3201 21.8 19.4001 21.8C19.4801 21.8 19.5601 21.88 19.6401 21.88C19.7201 21.96 19.8801 21.96 19.9601 22.04C20.0401 22.04 20.0401 22.12 20.1201 22.12C19.9601 22.52 19.8801 23 19.8801 23.4C19.8801 23.8 19.9601 24.28 20.1201 24.68C20.1201 24.68 20.0401 24.76 19.9601 24.76C19.8801 24.84 19.7201 24.84 19.6401 24.92C19.5601 24.92 19.4801 25 19.4801 25C19.3201 25 19.2401 25.08 19.0801 25.08C19.0001 25.08 18.9201 25.08 18.9201 25.08C18.6801 25.08 18.4401 25.16 18.2001 25.16H18.1201H18.0401C15.7201 25.16 13.8001 24.04 13.8001 23.4C13.8001 22.76 15.7201 21.64 17.9601 21.64ZM22.4401 29.4C22.4401 29.16 22.4401 28.92 22.5201 28.68C22.5201 28.6 22.5201 28.52 22.5201 28.52C22.5201 28.36 22.6001 28.2 22.6001 28.12C22.6001 28.04 22.6001 27.96 22.6801 27.96C22.7601 27.8 22.7601 27.72 22.8401 27.64C22.8401 27.64 22.9201 27.56 22.9201 27.48C23.8001 27.72 24.6801 27.72 25.4801 27.48L25.5601 27.56C25.6401 27.64 25.6401 27.8 25.7201 27.88C25.7201 27.96 25.8001 27.96 25.8001 28.04C25.8001 28.2 25.8801 28.28 25.8801 28.44C25.8801 28.52 25.8801 28.6 25.8801 28.6C25.8801 28.84 25.9601 29.08 25.9601 29.32V29.4V29.48C25.9601 31.88 24.8401 33.8 24.2001 33.8C23.5601 33.8 22.4401 31.88 22.4401 29.64V29.56C22.4401 29.48 22.4401 29.48 22.4401 29.4ZM30.1201 41.4C28.0401 42.44 25.9601 41.56 25.0801 41.16C25.3201 40.2 26.0401 38.12 28.0401 37.08C30.0401 36.04 33.1601 36.2 34.8401 36.36C33.9601 37.8 32.2001 40.36 30.1201 41.4ZM23.3201 41.16C22.4401 41.64 20.3601 42.44 18.2801 41.4C16.2801 40.36 14.4401 37.72 13.4801 36.28C15.1601 36.12 18.2801 36.04 20.2801 37C22.3601 38.12 23.0801 40.2 23.3201 41.16ZM69.8001 55.4C69.8001 64.68 62.2801 72.2 53.0001 72.2H21.0001C11.7201 72.2 4.20007 64.68 4.20007 55.4V53H69.8001V55.4ZM72.2001 51.4H70.6001H3.40007H1.80007V48.2H72.2001V51.4Z" fill="#004042"/>
</svg>
