<svg width="88" height="26" viewBox="0 0 88 26" fill="none" xmlns="http://www.w3.org/2000/svg">
<path d="M60.0248 1.39011C59.8559 1.03356 59.6119 0.752078 59.2554 0.583188C59.0865 0.433064 58.8801 0.339236 58.6736 0.282939C58.4672 0.207877 58.2608 0.132815 58.0544 0.151581C57.8104 0.151581 57.5852 0.151581 57.3413 0.151581C57.1349 0.151581 56.9284 0.151581 56.722 0.151581C56.5344 0.132815 56.3842 0.170346 56.2341 0.282939C56.0089 0.358001 55.8025 0.45183 55.6899 0.677016C55.4084 0.920968 55.3334 1.23998 55.3334 1.57776C55.3334 9.1778 55.3334 16.7778 55.3334 24.3779C55.3334 24.6594 55.446 24.847 55.7087 24.9784C55.9151 25.0722 56.1215 25.0159 56.3279 25.0159C56.4781 25.0159 56.6282 25.0159 56.7783 25.0159C56.966 25.0159 57.1724 25.0159 57.36 25.0159C57.6603 25.0159 57.9605 25.0722 58.2608 24.9784C58.4297 24.9971 58.561 24.9033 58.7112 24.847C58.9551 24.8095 59.124 24.6218 59.3492 24.5468C59.3867 24.5092 59.4243 24.4529 59.4618 24.4154C59.762 24.2277 59.9497 23.9463 60.0998 23.646C60.3625 23.2144 60.4751 22.7453 60.4751 22.2761C60.4751 15.8959 60.4751 9.51558 60.4751 3.11653C60.4751 2.72246 60.4564 2.32838 60.325 1.93431C60.2312 1.72788 60.1936 1.52146 60.0248 1.39011Z" fill="#004042"/>
<path d="M24.9708 13.6065C25.0083 13.4376 24.8769 13.3813 24.7644 13.3438C24.07 13.0623 23.3945 12.7433 22.6814 12.5368C22.1559 12.3867 21.6493 12.2178 21.1051 12.124C20.9174 12.0489 20.711 12.0677 20.5233 12.0302C19.9979 11.8988 19.4725 11.8988 18.947 11.8801C18.6843 11.8613 18.4216 11.9176 18.1589 11.9176C17.9149 11.9176 17.671 11.9551 17.427 12.0114C17.0142 12.0865 16.6201 12.1991 16.2073 12.2741C15.9821 12.3117 15.832 12.443 15.6443 12.5556C15.5129 12.5744 15.4004 12.6307 15.2878 12.7057C15.2127 12.6682 15.1564 12.7245 15.1001 12.7433C15.0063 12.762 14.9687 12.7245 14.9875 12.6119C15.025 12.5931 15.0626 12.5556 15.1189 12.5368C15.3628 12.4993 15.5129 12.3117 15.7194 12.1991C16.2636 11.9364 16.8265 11.7487 17.3895 11.5423C17.4458 11.5235 17.5209 11.5235 17.5772 11.5047C18.0651 11.3546 18.5905 11.2796 19.0972 11.2233C19.51 11.1857 19.9228 11.1857 20.3357 11.167C21.0112 11.1857 21.668 11.2608 22.3436 11.3546C22.8878 11.4297 23.432 11.5235 23.9574 11.6736C24.0137 11.7862 24.0888 11.7862 24.1826 11.7675C24.2389 11.7675 24.2952 11.7675 24.3515 11.7675C24.4078 11.805 24.4829 11.8425 24.5767 11.8425C24.5392 11.7675 24.5016 11.7299 24.4453 11.7112C24.0325 11.2233 23.5634 10.7917 23.0567 10.3976C22.2122 9.74078 21.274 9.27165 20.2419 9.00893C19.7164 8.87757 19.1722 8.76498 18.628 8.76498C17.746 8.70868 16.8828 8.80251 16.0384 9.04646C15.7569 9.14029 15.4379 9.15905 15.1752 9.32794C14.7811 9.40301 14.4245 9.57189 14.0868 9.74078C13.8428 9.85338 13.5801 9.92844 13.3924 10.1349C13.3737 10.1349 13.3361 10.1536 13.3174 10.1536C12.6231 10.5289 11.9663 10.9418 11.3282 11.4109C11.0655 11.6173 10.7653 11.805 10.5401 12.0489C10.2211 12.2178 9.95835 12.4993 9.69564 12.7433C9.56428 12.8746 9.58304 12.9497 9.7144 13.0435C10.2398 13.4564 10.7465 13.888 11.2719 14.282C11.666 14.5823 12.0601 14.9013 12.5105 15.1077C12.8858 15.408 13.2986 15.5956 13.7302 15.7833C13.8991 15.8959 14.068 15.9897 14.2557 16.046C14.4433 16.1774 14.6497 16.29 14.8749 16.3087C15.4191 16.5714 15.9821 16.7403 16.5638 16.8342C17.1268 16.928 17.6897 17.0406 18.2527 17.0218C18.2715 17.0218 18.309 17.0406 18.3278 17.0593C18.3278 17.1907 18.2527 17.2658 18.1777 17.3596C18.1401 17.3971 18.1214 17.4159 18.0838 17.4534C18.0088 17.5472 17.9337 17.6411 17.8586 17.7161C17.7648 17.7724 17.6897 17.8475 17.6335 17.9413C17.427 18.0351 17.2769 18.1853 17.1268 18.3354C17.0142 18.4105 16.9204 18.5043 16.8078 18.5606C16.4137 18.8045 16.0196 19.0297 15.6068 19.2737C15.4191 19.3487 15.2502 19.4238 15.0626 19.4989C14.7999 19.5739 14.5371 19.6677 14.2744 19.724C13.8428 19.8179 13.3924 19.8554 12.9608 19.9117C12.5292 19.968 12.1164 19.8742 11.6848 19.8742C11.347 19.8742 11.0092 19.7616 10.6527 19.7053C9.88329 19.4801 9.13267 19.1798 8.47588 18.7295C7.95044 18.3729 7.44377 17.9976 7.03093 17.4909C6.65562 17.0406 6.29908 16.5714 6.01759 16.0648C5.69858 15.5018 5.51092 14.8825 5.34203 14.2633C5.3045 14.0944 5.3045 13.9255 5.21067 13.7566C5.28574 13.4564 5.13561 13.1936 5.13561 12.9122C5.13561 12.5368 5.09808 12.1803 5.17314 11.805C5.24821 11.3546 5.3045 10.9042 5.43586 10.4726C5.56722 9.98474 5.79241 9.53436 5.98006 9.08399C6.28031 8.53979 6.63686 8.03312 7.0497 7.56398C7.44377 7.20744 7.81908 6.83213 8.25069 6.51311C8.64477 6.23163 9.09514 6.02521 9.50798 5.76249C9.7707 5.7062 9.99588 5.57484 10.2398 5.49978C10.8591 5.31212 11.4971 5.18076 12.1352 5.162C12.1914 5.162 12.2477 5.162 12.3228 5.162C12.4354 5.162 12.5668 5.162 12.6794 5.162C12.8107 5.162 12.9421 5.162 13.0734 5.162C14.3682 5.162 15.6631 5.162 16.9579 5.162C17.1455 5.162 17.352 5.162 17.5396 5.162C17.7836 5.162 18.0088 5.18076 18.2527 5.162C18.628 5.14323 18.9283 4.97434 19.1159 4.63656C19.3411 4.33631 19.2473 3.99853 19.2473 3.67952C19.2473 3.26668 19.2473 2.85384 19.2473 2.42223C19.2473 1.93433 19.2473 1.46519 19.2661 0.977285C19.2661 0.545678 18.947 0.170367 18.5342 0.0577737C18.309 0.00147713 18.1026 0.0202432 17.8774 0.0202432C17.2206 0.0202432 16.5638 0.0202432 15.907 0.0202432C15.7944 0.0202432 15.6631 0.0202432 15.5505 0.0202432C14.6497 0.0202432 13.7678 0.0202432 12.867 0.0202432C12.8295 0.0202432 12.8107 0.0202432 12.7732 0.0202432C12.2665 -0.0360533 11.7598 0.0390086 11.2532 0.0765397C11.1031 0.0953052 10.9342 0.0390082 10.8028 0.151601C10.6902 0.170367 10.5964 0.132836 10.4838 0.170367C10.2211 0.245429 9.93959 0.320491 9.6581 0.358023C9.13267 0.414319 8.64477 0.601974 8.17563 0.808395C7.87538 0.864691 7.61266 1.01482 7.33118 1.12741C6.9371 1.2963 6.54303 1.46519 6.20525 1.74667C6.03636 1.76544 5.905 1.8968 5.77364 1.99062C5.11685 2.3847 4.51635 2.8726 3.97215 3.39804C3.80326 3.5294 3.6719 3.67952 3.54054 3.84841C3.37165 3.90471 3.27783 4.0173 3.22153 4.16742C3.20276 4.18619 3.20276 4.18619 3.184 4.20495C2.92128 4.41138 2.69609 4.65533 2.56474 4.97434C2.28325 5.34965 1.983 5.7062 1.77658 6.1378C1.68276 6.28793 1.58893 6.41929 1.4951 6.56941C1.28868 6.94472 1.10103 7.32003 0.969667 7.73287C0.950901 7.7704 0.91337 7.78917 0.91337 7.8267C0.744481 8.33337 0.556825 8.82127 0.406701 9.32794C0.312873 9.62819 0.219046 9.94721 0.219046 10.285C0.125218 10.3413 0.181515 10.4351 0.181515 10.5102C0.181515 10.5289 0.181515 10.5289 0.181515 10.5477C0.162749 10.5665 0.143984 10.5852 0.143984 10.604C0.0876871 11.0731 0.0313904 11.5235 0.0126249 11.9926C-0.0249062 12.5368 0.0313905 13.081 0.0501561 13.6252C0.0501561 13.6628 0.0501559 13.7191 0.106452 13.7378C0.106452 13.9818 0.162749 14.207 0.181515 14.4322C0.237811 14.9951 0.387936 15.5581 0.53806 16.1023C0.838308 17.1344 1.26992 18.1102 1.83288 19.0297C2.28325 19.7803 2.82745 20.4747 3.42795 21.1315C3.84079 21.5818 4.30993 21.9759 4.77907 22.3512C5.3608 22.8204 5.99883 23.2144 6.65562 23.571C7.08723 23.7962 7.51883 24.0213 7.96921 24.1715C8.47588 24.3404 8.96378 24.528 9.48921 24.6594C9.7707 24.772 10.0522 24.8283 10.3524 24.847C10.4275 24.9409 10.5213 24.8658 10.6151 24.8846C10.6339 24.9221 10.6714 24.9409 10.709 24.9409C11.0655 24.9596 11.4408 24.9972 11.7974 25.0347C12.4354 25.1097 13.0734 25.0535 13.7115 25.0159C13.8616 25.0159 14.0305 25.0535 14.1618 24.9409C14.631 24.9221 15.0813 24.8095 15.5317 24.6781C15.588 24.6594 15.6631 24.6594 15.7194 24.6406C16.3949 24.4905 17.033 24.2278 17.6522 23.9651C17.8774 23.8712 18.1214 23.7774 18.2902 23.6085C18.7781 23.4584 19.1722 23.1394 19.5851 22.8579C19.6226 22.8391 19.6601 22.8204 19.6977 22.8016C20.5046 22.2199 21.274 21.5631 21.912 20.7937C22.0996 20.6436 22.231 20.4371 22.3624 20.2682C22.6626 19.8742 22.9816 19.4613 23.2068 19.011C23.4132 18.7858 23.5258 18.4855 23.676 18.2228C24.0137 17.6035 24.2389 16.9467 24.4641 16.3087C24.5579 16.0085 24.6893 15.7082 24.6893 15.3892C24.8019 15.089 24.8582 14.7699 24.8769 14.4509C24.9895 14.3759 24.9332 14.2445 24.952 14.1507C24.952 13.9818 25.0458 13.7941 24.9708 13.6065ZM21.2927 12.2178C21.274 12.2178 21.274 12.1991 21.2552 12.1991C21.274 12.1991 21.274 12.1991 21.2927 12.2178ZM16.2636 0.0765397C16.226 0.0765397 16.1697 0.0765397 16.1322 0.0765397C16.1697 0.0765397 16.2073 0.0765397 16.2636 0.0765397ZM2.62103 4.97434C2.6398 4.97434 2.6398 4.97434 2.62103 4.97434V4.97434Z" fill="#004042"/>
<path d="M87.9666 19.649C87.9666 18.7858 87.9666 17.9413 87.9666 17.0781C87.9666 16.5152 87.9666 15.9522 87.9666 15.3892C87.9666 15.0702 87.9666 14.7324 87.9666 14.4134C87.9666 13.6253 87.9854 12.8371 87.9666 12.049C87.9666 11.8988 88.0417 11.7487 87.9666 11.5986C87.9666 11.3734 87.9103 11.1482 87.8728 10.923C87.8353 10.6603 87.8353 10.3601 87.7039 10.1161C87.6664 9.62822 87.535 9.17785 87.3473 8.72748C87.1972 8.10821 86.9533 7.52648 86.6343 6.98228C86.5404 6.68203 86.334 6.43808 86.1839 6.1566C86.0713 5.95018 85.9775 5.70623 85.7898 5.53734C85.5459 5.14326 85.3019 4.76795 84.9454 4.4677C84.9454 4.37387 84.8891 4.29881 84.8328 4.24252C84.6826 4.11116 84.5325 3.9798 84.3824 3.84844C84.2698 3.73585 84.2323 3.56696 84.0634 3.54819C84.0634 3.51066 84.0634 3.47313 84.0446 3.47313C83.8757 3.323 83.6881 3.19165 83.5004 3.04152C83.4066 2.96646 83.3691 2.81634 83.2002 2.8351C83.0313 2.64745 82.8061 2.49732 82.5809 2.38473C82.1868 2.04695 81.6989 1.82176 81.2298 1.57781C80.6668 1.27756 80.1039 1.03361 79.4846 0.864721C79.4658 0.845956 79.4658 0.845956 79.4471 0.82719C78.8278 0.620769 78.171 0.470645 77.533 0.376817C77.1952 0.320521 76.8574 0.245459 76.5196 0.28299C76.4446 0.28299 76.3695 0.28299 76.3132 0.28299C76.2194 0.189162 76.088 0.226693 75.9754 0.226693C75.6564 0.207928 75.3374 0.170396 75.0372 0.28299C74.8307 0.301755 74.6243 0.226693 74.4179 0.339286C74.2302 0.301755 74.0426 0.358052 73.8737 0.414348C73.2732 0.470645 72.6915 0.639534 72.1097 0.808424C71.1152 1.10867 70.1957 1.57781 69.2949 2.10325C68.9759 2.2909 68.6569 2.51609 68.3754 2.76004C68.1315 2.94769 67.9063 3.21041 67.6623 3.3793C67.1932 3.67955 66.9117 4.12992 66.5364 4.50523C66.2549 4.80548 66.0109 5.18079 65.767 5.53734C65.5418 5.89388 65.2979 6.25043 65.1102 6.6445C64.5848 7.65784 64.1907 8.70871 63.9467 9.83464C63.8717 10.2287 63.8154 10.6228 63.7591 10.9981C63.7216 11.2984 63.7403 11.5986 63.7028 11.8988C63.609 12.5744 63.684 13.2312 63.7779 13.9068C63.7403 14.2633 63.8341 14.5823 63.9092 14.9201C64.003 15.4455 64.1156 15.9522 64.3033 16.4589C64.4159 16.9468 64.6223 17.3971 64.8475 17.8475C64.9976 18.1853 65.1477 18.5231 65.3917 18.8421C65.5793 19.3112 65.8608 19.7241 66.1986 20.0994C66.1986 20.1369 66.1986 20.1744 66.2174 20.1932C66.4989 20.4747 66.7053 20.8125 67.0055 21.0564C67.0055 21.169 67.0806 21.2253 67.1556 21.3004C67.4559 21.5256 67.7374 21.807 68.0001 22.0885C68.169 22.1636 68.2816 22.3325 68.4317 22.4451C68.6006 22.5577 68.7507 22.689 68.9384 22.7829C69.0134 22.9705 69.2386 22.9705 69.37 23.0831C69.6139 23.3083 69.9329 23.4396 70.252 23.5898C70.4771 23.7024 70.7023 23.8337 70.9275 23.9463C71.2278 24.0964 71.528 24.2466 71.8658 24.3029C72.2974 24.4905 72.7478 24.6031 73.2169 24.6969C73.9488 24.9221 74.6994 25.0347 75.45 25.0159C75.5063 25.091 75.6001 25.0535 75.6752 25.0535C75.694 25.0535 75.7315 25.0535 75.7503 25.0535C75.8816 25.091 76.013 25.091 76.1443 25.0535C76.4446 25.1285 76.7448 25.1098 77.0451 25.0535C77.4767 25.091 77.9083 25.091 78.3399 25.0535C78.6026 25.0159 78.8466 24.9784 79.0905 24.8846C79.6535 24.6782 80.0476 24.3029 80.329 23.7962C80.6105 23.2895 80.6668 22.7641 80.5355 22.2011C80.4792 21.9009 80.3666 21.6006 80.1789 21.3754C80.01 21.169 79.8411 20.9251 79.5597 20.8125C79.3157 20.6061 79.0342 20.4935 78.7152 20.4559C78.6964 20.4559 78.6964 20.4372 78.6777 20.4372C78.5276 20.3809 78.3399 20.3621 78.1898 20.3621C77.3453 20.3433 76.5009 20.3621 75.6752 20.3621C75.6377 20.3621 75.5814 20.3433 75.5814 20.4184C75.4125 20.3809 75.2248 20.3246 75.0559 20.3246C74.7932 20.3246 74.5493 20.2495 74.2865 20.212C73.8362 20.1369 73.4233 19.9493 72.9917 19.8554C72.7665 19.7428 72.5601 19.6115 72.3162 19.5364C72.2223 19.4801 72.1285 19.4238 72.0347 19.3675C71.772 19.1986 71.5092 19.0297 71.2465 18.8609C70.9087 18.5606 70.5522 18.2604 70.2144 17.9601C70.0643 17.7725 69.9142 17.566 69.7641 17.3784C69.5764 17.1157 69.37 16.8529 69.1823 16.5715C69.1073 16.4213 69.0322 16.2712 68.9571 16.1211C68.8445 15.8959 68.7882 15.652 68.6381 15.4455C68.5255 15.1078 68.4317 14.7512 68.3191 14.4134C68.3191 14.3759 68.3191 14.3196 68.3191 14.2821C68.2065 13.8317 68.169 13.3626 68.1502 12.9122C68.1315 12.5556 68.1502 12.1991 68.1878 11.8426C68.2065 11.6737 68.244 11.5048 68.2628 11.3359C68.4129 10.5853 68.6381 9.87217 68.9571 9.19661C69.3137 8.65241 69.6515 8.10821 70.0831 7.60154C70.4584 7.16994 70.8712 6.81339 71.3216 6.47561C71.6781 6.19413 72.091 5.98771 72.4851 5.76252C73.1794 5.44351 73.8925 5.21832 74.6619 5.10573C74.812 5.08696 74.9996 5.16203 75.131 5.03067C75.2436 5.03067 75.3749 5.03067 75.4875 5.03067C75.5626 5.0682 75.6377 5.0682 75.7127 5.03067C75.8441 5.03067 75.9754 5.03067 76.1068 5.03067C76.1819 5.0682 76.2569 5.0682 76.332 5.03067C76.6698 5.04943 77.0075 5.08696 77.3453 5.16203C77.6456 5.21832 77.9458 5.29338 78.2461 5.34968C78.5463 5.46227 78.8466 5.59363 79.1468 5.70623C79.5409 5.93141 79.9162 6.1566 80.3103 6.38179C80.5355 6.58821 80.7794 6.73833 81.0234 6.92598C81.3424 7.26376 81.6426 7.62031 81.9616 7.95809C82.2619 8.37093 82.5434 8.80254 82.8061 9.25291C82.9375 9.55316 83.05 9.85341 83.1814 10.1349C83.3691 10.7729 83.5192 11.4297 83.5755 12.1053C83.5567 12.2742 83.5379 12.4243 83.5942 12.5932C83.613 12.6495 83.6318 12.7433 83.5567 12.7996C83.3315 12.8934 83.2002 12.687 83.0313 12.6119C82.6372 12.4055 82.2619 12.1803 81.8303 12.0677C81.1547 11.7863 80.4416 11.6549 79.7285 11.5798C79.6347 11.486 79.5221 11.5611 79.4095 11.5235C78.9029 11.3734 78.3587 11.4485 77.8332 11.4109C77.5517 11.3922 77.2703 11.4297 76.97 11.4485C76.5009 11.3922 76.0505 11.5235 75.6001 11.486C75.5814 11.486 75.5626 11.5235 75.5438 11.5423C75.4688 11.5423 75.3937 11.5423 75.3187 11.5423C75.2436 11.5423 75.1873 11.5423 75.1122 11.5423C74.6056 11.5423 74.1177 11.5423 73.611 11.4485C73.367 11.4109 73.1418 11.3922 72.8979 11.3546C72.1285 11.1295 71.3779 10.8667 70.7023 10.4164C70.5897 10.3976 70.5897 10.1724 70.4396 10.2662C70.4021 10.285 70.4959 10.4539 70.5897 10.5102C70.6085 10.6791 70.7399 10.8104 70.8337 10.923C71.1527 11.2796 71.4529 11.6737 71.772 12.0114C71.9221 12.1616 72.0722 12.3492 72.2786 12.4243C72.3725 12.4993 72.3912 12.6307 72.5038 12.7058C72.6539 12.7996 72.7853 12.9122 72.9354 13.006C73.1606 13.1561 73.3483 13.3813 73.611 13.4939C74.1177 13.9255 74.7369 14.1695 75.3374 14.526C75.1873 14.1132 75.0184 13.7379 75.0559 13.3063C75.0559 13.25 75.0184 13.1937 75.0935 13.1749C75.1685 13.1374 75.1685 13.25 75.2248 13.2687C75.2624 13.3438 75.3374 13.4376 75.3562 13.5127C75.4312 13.8129 75.6564 14.0006 75.8628 14.207C76.5759 15.2203 77.6831 15.4455 78.809 15.6707C78.6589 15.4831 78.5651 15.2579 78.4713 15.0515C78.2836 14.6386 78.1898 14.2258 78.2085 13.7754C78.2085 13.7379 78.1898 13.7003 78.2461 13.6816C78.2836 13.6628 78.3399 13.6816 78.3587 13.7191C78.3962 13.7754 78.415 13.8317 78.4337 13.8692C78.6026 14.1319 78.7152 14.4697 78.9592 14.6949C79.0905 14.9576 79.2782 15.2016 79.4846 15.3892C79.7661 15.6332 80.0663 15.8959 80.4416 16.0273C80.9295 16.2712 81.4737 16.365 82.0367 16.5902C81.774 16.1211 81.6426 15.6707 81.6614 15.2016C81.6614 15.0702 81.6239 14.8638 81.774 14.845C81.9241 14.8263 81.9429 15.0515 81.9616 15.1641C81.9804 15.3142 82.0179 15.4455 82.1493 15.5394C82.2056 15.7458 82.3182 15.9334 82.4683 16.0836C82.5434 16.3463 82.7686 16.4964 82.9187 16.6841C82.975 16.7591 82.9937 16.928 83.1439 16.9092C83.3128 17.0406 83.4817 17.1532 83.6318 17.2846C83.9133 17.5097 84.2323 17.6599 84.4762 17.9601C84.5701 18.0727 84.6639 18.2228 84.8328 18.2416C84.8515 18.2604 84.8515 18.2791 84.8703 18.2979C84.9454 18.3542 85.0204 18.4293 84.9454 18.5043C84.8703 18.5794 84.814 18.4855 84.7389 18.448C84.5138 18.3354 84.3261 18.2041 84.0821 18.129C83.5192 17.81 82.9187 17.5848 82.2994 17.4159C81.8115 17.247 81.3236 17.0781 80.8169 16.9655C80.4792 16.8342 80.1414 16.7216 79.7848 16.6465C79.7661 16.6278 79.7473 16.609 79.7098 16.609C78.734 16.3087 77.7394 16.0273 76.7824 15.6707C76.7448 15.652 76.7073 15.5957 76.651 15.5957C76.1631 15.4268 75.7127 15.2203 75.2624 15.0139C74.9433 14.8826 74.6619 14.6574 74.3241 14.5636C73.9863 14.3571 73.6485 14.1319 73.3107 13.9255C73.292 13.9443 73.292 13.9631 73.2732 13.9631C73.5172 14.2258 73.8174 14.4134 74.1177 14.6198C74.1364 14.7137 74.2303 14.7137 74.2865 14.7512C74.9621 15.2203 75.6564 15.652 76.407 15.9897C76.8762 16.2525 77.3641 16.4589 77.852 16.7028C78.0584 16.7967 78.2648 16.9092 78.5088 16.9468C79.053 17.1907 79.5972 17.3971 80.1602 17.566C80.5918 17.7725 81.0421 17.9601 81.455 18.1853C81.9429 18.4855 82.4308 18.7858 82.8812 19.1236C83.1251 19.3675 83.4066 19.5739 83.6318 19.8367C83.7256 19.9305 83.7631 20.0806 83.8945 20.1369C84.0821 20.4559 84.3261 20.7562 84.495 21.094C84.814 21.7695 84.9454 22.4638 84.9829 23.2145C84.9454 23.3458 84.9454 23.4959 84.9829 23.6273C84.9641 23.6648 84.9829 23.7024 85.0204 23.7211C85.058 24.1527 85.2268 24.5093 85.6022 24.772C85.9775 25.0347 86.3715 25.1661 86.8219 24.9972C87.3661 24.7908 87.779 24.4905 87.8916 23.89C87.9478 23.6085 87.9291 23.3271 87.9291 23.0643C87.9103 23.0268 87.9103 22.9893 87.9103 22.9517C87.9103 22.9893 87.9291 23.0268 87.9291 23.0643C87.9291 22.2949 87.9291 21.5068 87.9291 20.7374C87.9291 20.6623 87.9291 20.5873 87.9291 20.5122C87.9854 20.3246 87.854 20.1557 87.8916 19.9868C88.0041 19.8179 87.9666 19.7241 87.9666 19.649ZM75.6564 20.3246C75.6564 20.3246 75.6377 20.3246 75.6564 20.3246C75.6377 20.3246 75.6564 20.3246 75.6564 20.3246ZM87.854 17.7162C87.854 17.6786 87.854 17.6223 87.854 17.5848C87.854 17.6411 87.854 17.6786 87.854 17.7162ZM85.8086 13.7566C85.8086 13.7566 85.8086 13.7379 85.8086 13.7566C85.8086 13.7379 85.8086 13.7379 85.8086 13.7566C85.8086 13.7379 85.8086 13.7566 85.8086 13.7566ZM85.9024 5.98771C85.9024 5.95018 85.9024 5.91265 85.9024 5.87512C85.9212 5.91265 85.9212 5.96894 85.9024 5.98771Z" fill="#004042"/>
<path d="M50.8485 20.6247C50.8485 20.5684 50.8485 20.5121 50.8485 20.437C50.8485 20.1931 50.8485 19.9304 50.8485 19.6864C50.8485 18.0538 50.8485 16.44 50.8485 14.8074C50.8485 13.7565 50.8485 12.6869 50.8485 11.636C50.8297 11.5797 50.8109 11.5046 50.8109 11.4483C50.7734 11.0167 50.7359 10.5851 50.6233 10.1723C50.5294 9.72192 50.4731 9.29031 50.2855 8.87747C50.1354 8.23944 49.8727 7.62018 49.5536 7.05722C49.4973 6.86956 49.366 6.70067 49.2722 6.53178C49.0282 6.10017 48.803 5.66857 48.484 5.31202C48.3714 5.08684 48.2025 4.91795 48.0336 4.73029C47.6208 4.22362 47.1141 3.79202 46.6637 3.30411C46.6262 3.26658 46.5887 3.24782 46.5512 3.24782C46.4573 3.13522 46.3823 3.02263 46.2321 2.9851C45.9882 2.75991 45.7255 2.55349 45.4252 2.40337C44.9936 2.04682 44.5057 1.7841 43.999 1.55892C43.5674 1.31497 43.0983 1.12731 42.6104 0.977187C41.9724 0.71447 41.2968 0.564346 40.6025 0.451753C40.2459 0.395456 39.8894 0.320394 39.5141 0.320394C39.4015 0.320394 39.2889 0.320394 39.1575 0.320394C39.0637 0.226566 38.9511 0.282863 38.8385 0.282863C38.5383 0.282863 38.2193 0.226566 37.919 0.320394C37.8064 0.320394 37.6938 0.320394 37.5625 0.320394C37.4874 0.320394 37.3936 0.282863 37.3373 0.357925C37.3185 0.357925 37.281 0.357925 37.2622 0.357925C37.0746 0.320394 36.8869 0.37669 36.718 0.432987C36.5679 0.414221 36.4178 0.451753 36.2864 0.489284C34.7476 0.789532 33.3215 1.3525 32.0266 2.21571C31.1447 2.79744 30.3377 3.49177 29.6247 4.27992C28.9303 5.06807 28.3486 5.91252 27.8607 6.8508C27.4103 7.73278 27.0725 8.65229 26.8661 9.62809C26.6597 10.5851 26.5659 11.5422 26.5283 12.518C26.5096 13.0059 26.5659 13.475 26.6222 13.9442C26.6222 14.1506 26.6785 14.357 26.6972 14.5634C26.7911 15.2015 26.9224 15.8395 27.1476 16.4587C27.279 16.8904 27.4103 17.322 27.6355 17.716C27.7669 18.1289 27.9733 18.4854 28.2172 18.842C28.2735 19.0672 28.4237 19.236 28.5362 19.4425C28.6864 19.6864 28.8365 19.9491 29.0617 20.1368C29.0617 20.1743 29.0617 20.2118 29.0805 20.2306C29.3619 20.4933 29.5684 20.8499 29.8686 21.0751C30.1876 21.3941 30.5066 21.7131 30.8256 22.0509C30.9195 22.0884 30.9758 22.1635 31.0508 22.2198C31.276 22.4074 31.5012 22.5951 31.7639 22.7264C31.8202 22.8766 31.9891 22.8578 32.0829 22.9516C32.3457 23.2143 32.6834 23.3457 33.0212 23.4958C33.0212 23.5333 33.0212 23.5709 33.0775 23.5896C33.3215 23.7022 33.5466 23.8148 33.7906 23.9274C34.0721 24.0588 34.3723 24.2089 34.6913 24.2652C34.9165 24.3966 35.1792 24.4529 35.4232 24.5092C35.761 24.5842 36.08 24.7531 36.4365 24.7531C37.037 24.922 37.6563 24.9971 38.2756 24.9783C38.5758 25.0909 38.8761 25.0534 39.1763 25.0158C39.7768 25.0158 40.3585 25.0346 40.959 25.0158C41.9911 24.9971 42.7793 24.5467 43.2297 23.6084C43.4548 23.1393 43.5111 22.6514 43.3798 22.1635C43.2484 21.6005 42.9669 21.1501 42.4978 20.8123C42.1037 20.5309 41.6909 20.3432 41.203 20.362C41.1654 20.3057 41.1092 20.3244 41.0529 20.3244C40.2272 20.3244 39.4015 20.3244 38.557 20.3244C38.5007 20.3244 38.4444 20.3057 38.4069 20.362C38.1442 20.3244 37.8627 20.2869 37.6 20.2494C37.2059 20.1931 36.8306 20.0805 36.4365 20.0054C36.0237 19.8553 35.6109 19.7052 35.2168 19.5175C34.8978 19.3299 34.56 19.1234 34.241 18.9358C33.8469 18.598 33.4716 18.279 33.0775 17.9412C32.8148 17.6222 32.5708 17.2844 32.3081 16.9654C32.2706 16.8341 32.1768 16.7215 32.0829 16.6089C31.8202 16.2336 31.6701 15.7832 31.4637 15.3891C31.3698 15.1076 31.276 14.8261 31.201 14.5447C31.0508 13.7565 30.9382 12.9871 30.9758 12.1802C31.0321 12.0864 31.0133 11.9925 31.0133 11.8987C31.0508 11.5046 31.1259 11.0918 31.2197 10.7165C31.3698 10.1723 31.5575 9.66562 31.7827 9.15896C31.8765 9.00883 31.9516 8.85871 32.0454 8.70858C32.5333 7.90167 33.1338 7.18858 33.8844 6.62561C34.3348 6.28783 34.8227 5.98758 35.3106 5.72487C35.3857 5.6498 35.4983 5.63104 35.5921 5.61227C36.0612 5.44338 36.5116 5.27449 36.9995 5.18067C37.2998 5.12437 37.6 5.1056 37.9002 5.01178C38.0128 5.01178 38.1442 5.01178 38.2568 5.01178C38.7447 5.01178 39.2514 4.99301 39.7393 5.04931C40.1896 5.1056 40.6212 5.23696 41.0716 5.31202C41.3906 5.42462 41.7096 5.55597 42.0099 5.66857C42.404 5.91252 42.8168 6.15647 43.2109 6.40042C43.4173 6.56931 43.6237 6.71944 43.8302 6.88833C44.1492 7.24487 44.4869 7.60142 44.806 7.95796C44.8623 8.05179 44.8998 8.12685 44.9936 8.18315C45.2 8.50216 45.3877 8.83994 45.5941 9.15896C45.7255 9.47797 45.8568 9.77822 45.9882 10.0972C45.9882 10.116 45.9882 10.1535 46.007 10.1723C46.1758 10.679 46.3072 11.1669 46.3635 11.6923C46.401 11.955 46.3635 12.2365 46.4386 12.4992C46.4198 12.593 46.4761 12.7056 46.3447 12.7807C46.2321 12.7807 46.1571 12.7432 46.0632 12.6869C45.6129 12.4242 45.1625 12.1427 44.6558 12.0113C43.924 11.6923 43.1358 11.5985 42.3664 11.4859C42.2914 11.4671 42.2163 11.4296 42.1413 11.4296C41.3719 11.3733 40.6025 11.3358 39.8331 11.3921C39.2701 11.3921 38.7259 11.4296 38.1817 11.4859C37.3748 11.5046 36.5679 11.4296 35.7797 11.2982C35.7797 11.2795 35.761 11.2607 35.761 11.2607C34.9165 11.0918 34.1659 10.7353 33.4528 10.2661C33.4153 10.2286 33.3778 10.1535 33.3215 10.2098C33.2839 10.2474 33.3402 10.3037 33.3965 10.3224C33.8281 10.998 34.3348 11.5985 34.9165 12.1427C35.1417 12.3866 35.4044 12.6118 35.6671 12.7995C35.8923 12.9684 36.08 13.1935 36.3427 13.3061C36.3615 13.3624 36.4178 13.4 36.4553 13.4375C36.8306 13.6627 37.1872 13.9066 37.5625 14.1318C37.7689 14.2632 37.9941 14.357 38.238 14.4696C38.0879 14.0568 37.9378 13.6814 37.9753 13.2874C37.9753 13.2498 37.9378 13.1748 38.0128 13.156C38.0879 13.1372 38.0691 13.2311 38.1254 13.2498C38.2943 13.5876 38.4444 13.9442 38.7447 14.1881C39.4766 15.1639 40.565 15.4266 41.6909 15.6331C41.522 15.4266 41.4282 15.1827 41.3343 14.9387C41.1654 14.5634 41.0529 14.1506 41.0904 13.719C41.0904 13.6814 41.0716 13.6439 41.1279 13.6439C41.1467 13.6439 41.1842 13.6627 41.203 13.6814C41.2405 13.7377 41.2593 13.794 41.278 13.8316C41.4657 14.1131 41.5783 14.4133 41.8222 14.6573C41.841 14.6948 41.841 14.7511 41.8598 14.7698C42.085 14.995 42.2538 15.2577 42.4978 15.4642C42.7605 15.6706 43.0232 15.8582 43.3422 15.9708C43.8114 16.2523 44.3556 16.2711 44.8623 16.5526C44.8247 16.44 44.8247 16.3462 44.7872 16.2711C44.562 15.8958 44.5245 15.4829 44.5245 15.0701C44.5245 14.9763 44.5432 14.8261 44.6183 14.8074C44.7497 14.7698 44.7309 14.9387 44.7872 15.0138C44.8247 15.0889 44.8435 15.1452 44.8435 15.2202C44.8247 15.3328 44.8998 15.3703 44.9748 15.4079C45.0687 15.6331 45.1437 15.877 45.3314 16.0271C45.4628 16.2899 45.6504 16.515 45.8568 16.7027C45.9694 16.8528 46.1383 16.9466 46.2697 17.078C46.4949 17.2844 46.7763 17.4158 47.0203 17.6222C47.1704 17.7348 47.2455 17.9412 47.4707 17.96C47.5457 18.0913 47.6583 18.2039 47.7897 18.3165C47.846 18.3541 47.9586 18.4104 47.9023 18.5042C47.846 18.598 47.7521 18.4854 47.6771 18.4667C47.6396 18.4667 47.5833 18.4104 47.5457 18.3916C47.3768 18.2227 47.1517 18.1852 46.9452 18.0913C46.3823 17.7536 45.7818 17.5471 45.1625 17.3783C44.6934 17.1718 44.1867 17.0405 43.68 16.9279C43.361 16.7778 43.0045 16.6839 42.6479 16.6089C42.1976 16.4212 41.7096 16.3274 41.2593 16.1585C40.7338 15.9708 40.1896 15.8582 39.683 15.5955C39.2138 15.4266 38.7447 15.2765 38.3131 15.0326C37.6751 14.676 36.9807 14.4321 36.3802 13.9817C36.3427 13.9629 36.2864 13.8879 36.2114 13.9629C36.5867 14.3007 36.9995 14.601 37.4123 14.8637C37.9941 15.239 38.5758 15.6331 39.2326 15.8958C39.6267 16.1397 40.0395 16.3086 40.4524 16.4963C40.7526 16.6464 41.0529 16.7965 41.3906 16.8716C41.8598 17.0968 42.3289 17.2657 42.8168 17.397C42.8543 17.4158 42.8919 17.4721 42.9482 17.4721C43.4361 17.6222 43.8864 17.8849 44.3368 18.1101C44.8435 18.4104 45.3502 18.7294 45.8193 19.0859C46.0257 19.2736 46.2884 19.4425 46.4573 19.6864C46.5512 19.8178 46.6825 19.9491 46.7951 20.0805C47.2267 20.6435 47.5457 21.2815 47.7334 21.957C47.8272 22.4262 47.8835 22.8953 47.8835 23.3645C47.8647 23.7398 47.9773 24.1151 48.2213 24.4153C48.7655 25.0721 49.3847 25.1659 50.0603 24.7906C50.4356 24.5842 50.7359 24.2652 50.8109 23.8148C50.8672 23.5146 50.8297 23.1956 50.8297 22.8766C50.8485 22.1259 50.8485 21.3753 50.8485 20.6247ZM31.4449 9.4592C31.4449 9.4592 31.4449 9.44044 31.4261 9.44044C31.4261 9.44044 31.4449 9.44044 31.4449 9.4592C31.4449 9.44044 31.4449 9.44044 31.4449 9.4592C31.4449 9.44044 31.4449 9.44044 31.4449 9.4592ZM41.4469 20.3807C41.4469 20.3807 41.4469 20.362 41.4469 20.3807C41.4469 20.362 41.4657 20.362 41.4657 20.362C41.4657 20.362 41.4657 20.3807 41.4469 20.3807ZM48.8593 7.67648L48.8781 7.65771C48.8781 7.65771 48.8781 7.67648 48.8593 7.67648ZM36.3427 13.0059C36.3427 13.0247 36.3239 13.0247 36.3239 13.0434C36.3239 13.0247 36.3427 13.0059 36.3427 13.0059Z" fill="#004042"/>
</svg>
