<svg width="17" height="17" viewBox="0 0 17 17" fill="none" xmlns="http://www.w3.org/2000/svg">
<path d="M4.25 1.41669L2.125 4.25002V14.1667C2.125 14.5424 2.27426 14.9027 2.53993 15.1684C2.80561 15.4341 3.16594 15.5834 3.54167 15.5834H13.4583C13.8341 15.5834 14.1944 15.4341 14.4601 15.1684C14.7257 14.9027 14.875 14.5424 14.875 14.1667V4.25002L12.75 1.41669H4.25Z" stroke="#004042" stroke-width="1.6" stroke-linecap="round" stroke-linejoin="round"/>
<path d="M2.125 4.25H14.875" stroke="#004042" stroke-width="1.6" stroke-linecap="round" stroke-linejoin="round"/>
<path d="M11.3333 7.08331C11.3333 7.83476 11.0348 8.55543 10.5034 9.08678C9.97207 9.61813 9.25141 9.91665 8.49996 9.91665C7.74851 9.91665 7.02784 9.61813 6.49649 9.08678C5.96514 8.55543 5.66663 7.83476 5.66663 7.08331" stroke="#004042" stroke-width="1.6" stroke-linecap="round" stroke-linejoin="round"/>
</svg>
