<svg width="19" height="19" viewBox="0 0 19 19" fill="none" xmlns="http://www.w3.org/2000/svg">
<path d="M16.0359 4.8177C16.3921 5.69118 16.8238 6.66361 17.0412 7.53091C17.2363 8.30015 17.3163 9.09418 17.2787 9.887C17.2419 10.6789 17.0859 11.4608 16.8161 12.206C16.5496 12.9406 16.1731 13.6302 15.6998 14.2513C15.2281 14.8654 14.6655 15.4035 14.0315 15.8468C13.7959 16.0138 13.552 16.1686 13.3006 16.3106C13.0498 16.4528 12.7928 16.5811 12.5297 16.6955C11.9678 16.9459 11.379 17.1305 10.775 17.2459C10.1824 17.3593 9.57836 17.4019 8.97568 17.3727L8.78912 17.3603L8.36356 18.9496L8.65497 18.9728C9.42338 19.0317 10.1961 18.9948 10.9554 18.863C11.7259 18.7264 12.4771 18.497 13.1927 18.1797C13.4949 18.0457 13.7945 17.8947 14.0916 17.7267C14.3799 17.5628 14.6698 17.3789 14.9581 17.1779C16.5173 16.0899 17.7019 14.5441 18.3487 12.7533C18.9987 10.9477 19.0901 8.98744 18.6108 7.12895C18.3025 6.23692 17.9663 5.05887 17.3295 4.15756C16.9086 3.56081 15.6751 3.91484 16.0421 4.8177H16.0359ZM8.63493 6.9187C8.63012 6.80738 8.64784 6.69624 8.68701 6.59197C8.72618 6.4877 8.786 6.39246 8.86285 6.31199C8.93971 6.23152 9.03202 6.16748 9.13422 6.12373C9.23642 6.07998 9.34639 6.05742 9.45752 6.05742C9.56864 6.05742 9.67862 6.07998 9.78082 6.12373C9.88302 6.16748 9.97533 6.23152 10.0522 6.31199C10.129 6.39246 10.1889 6.4877 10.228 6.59197C10.2672 6.69624 10.2849 6.80738 10.2801 6.9187V8.67494H12.027C12.2454 8.67494 12.4548 8.76192 12.6093 8.91675C12.7637 9.07157 12.8504 9.28155 12.8504 9.5005C12.8504 9.71946 12.7637 9.92944 12.6093 10.0843C12.4548 10.2391 12.2454 10.3261 12.027 10.3261H10.2786V12.0823C10.2834 12.1936 10.2657 12.3048 10.2265 12.409C10.1873 12.5133 10.1275 12.6085 10.0506 12.689C9.97378 12.7695 9.88147 12.8335 9.77927 12.8773C9.67708 12.921 9.5671 12.9436 9.45598 12.9436C9.34485 12.9436 9.23488 12.921 9.13268 12.8773C9.03048 12.8335 8.93817 12.7695 8.86131 12.689C8.78446 12.6085 8.72464 12.5133 8.68547 12.409C8.6463 12.3048 8.62858 12.1936 8.63339 12.0823V10.3261H6.88028C6.66191 10.3261 6.45249 10.2391 6.29808 10.0843C6.14367 9.92944 6.05692 9.71946 6.05692 9.5005C6.05692 9.28155 6.14367 9.07157 6.29808 8.91675C6.45249 8.76192 6.66191 8.67494 6.88028 8.67494H8.63493V6.9187ZM3.73949 17.0635C4.28617 17.4895 4.87889 17.8525 5.50647 18.1457L5.76705 18.2678L6.19106 16.6832L6.01375 16.5981C5.5568 16.3703 5.12392 16.0968 4.72166 15.7819C4.3144 15.4629 3.93993 15.104 3.6038 14.7105L3.47275 14.5559L2.05885 15.3737L2.24079 15.5948C2.68466 16.1375 3.18731 16.629 3.73949 17.0604V17.0635ZM0.088338 10.7512C0.186712 11.4464 0.364155 12.128 0.6172 12.7826L0.717422 13.0486L2.13132 12.2307L2.06348 12.039C1.88961 11.552 1.76562 11.0485 1.69343 10.5363C1.62157 10.0243 1.60245 9.50626 1.63638 8.99033L1.64717 8.79089L0.0636681 8.37348L0.0374563 8.65948C-0.0259073 9.35637 -0.00883375 10.0583 0.088338 10.7512ZM1.29254 4.79451C1.15069 5.03414 1.02271 5.27531 0.90553 5.52112L0.780638 5.78394L2.36106 6.20909L2.45048 6.0313C2.53991 5.8566 2.63397 5.68654 2.73265 5.52267C2.83133 5.35879 2.9408 5.19337 3.05644 5.03259C3.24382 4.76844 3.44452 4.51405 3.65777 4.27042C3.86472 4.03181 4.08505 3.80522 4.31769 3.59173L4.46109 3.46032L3.64235 2.03646L3.42032 2.22971C3.10795 2.50265 2.8124 2.79434 2.53529 3.10319C2.25213 3.41821 1.98702 3.74906 1.74122 4.09417C1.57933 4.32298 1.43285 4.55797 1.291 4.78987L1.29254 4.79451ZM7.77765 0.122524C7.24249 0.212413 6.71733 0.354281 6.20957 0.546125L5.94128 0.646615L6.75847 2.06583L6.94658 1.99936C7.72488 1.72901 8.54547 1.60174 9.36886 1.62368C9.55543 1.62368 9.75125 1.64069 9.95323 1.66388C10.1552 1.68707 10.3402 1.71489 10.5299 1.75354C10.7195 1.79219 10.9231 1.84012 11.1158 1.89732C11.3085 1.95452 11.5013 2.021 11.7002 2.0983C11.7994 2.13815 11.9054 2.15787 12.0123 2.15634C12.1191 2.1548 12.2246 2.13202 12.3226 2.08934C12.4206 2.04665 12.5092 1.98489 12.5832 1.90764C12.6573 1.83039 12.7153 1.73919 12.7539 1.6393C12.7926 1.53942 12.8111 1.43284 12.8084 1.32574C12.8056 1.21864 12.7818 1.11314 12.7381 1.01535C12.6945 0.917563 12.6319 0.829429 12.554 0.756051C12.4762 0.682673 12.3846 0.625509 12.2845 0.587867C12.0502 0.496653 11.8096 0.414716 11.5645 0.342054C11.3193 0.269393 11.0834 0.212191 10.8475 0.164265C10.6116 0.11634 10.3742 0.0792359 10.1398 0.0529541C9.90543 0.0266723 9.65719 0.00966636 9.40587 0.0019364C8.86054 -0.00964349 8.31536 0.0307336 7.77765 0.122524Z" fill="#004042"/>
</svg>
